G04 (created by PCBNEW (22-Jun-2014 BZR 4027)-stable) date Tue 12 Jul 2016 21:22:19 BST*
%MOIN*%
G04 Gerber Fmt 3.4, Leading zero omitted, Abs format*
%FSLAX34Y34*%
G01*
G70*
G90*
G04 APERTURE LIST*
%ADD10C,0.00590551*%
%ADD11C,0.055*%
%ADD12C,0.0433071*%
%ADD13C,0.16*%
%ADD14C,0.0472441*%
%ADD15C,0.066*%
%ADD16C,0.0393701*%
%ADD17C,0.0551181*%
%ADD18C,0.01*%
G04 APERTURE END LIST*
G54D10*
G54D11*
X116900Y-69500D03*
X117900Y-69500D03*
X100200Y-69500D03*
X101200Y-69500D03*
G54D12*
X109100Y-80900D03*
X108100Y-80900D03*
X110100Y-80900D03*
G54D13*
X102200Y-75200D03*
X116000Y-75200D03*
G54D14*
X108600Y-79300D03*
X109600Y-79300D03*
G54D11*
X105200Y-73450D03*
X105200Y-76950D03*
X112900Y-73450D03*
X112900Y-76950D03*
G54D15*
X100700Y-80600D03*
X101700Y-80600D03*
X117700Y-80700D03*
X116700Y-80700D03*
G54D16*
X117300Y-78500D03*
X118300Y-78500D03*
X99800Y-78500D03*
X100800Y-78500D03*
G54D14*
X112200Y-81200D03*
X112900Y-81200D03*
X113600Y-81200D03*
X105900Y-81200D03*
X105200Y-81200D03*
X104500Y-81200D03*
G54D17*
X111900Y-70400D03*
X112900Y-69400D03*
X113900Y-70400D03*
X104200Y-70400D03*
X105200Y-69400D03*
X106200Y-70400D03*
G54D10*
G36*
X118630Y-81271D02*
X118586Y-81492D01*
X118280Y-81799D01*
X118280Y-80585D01*
X118191Y-80371D01*
X118028Y-80208D01*
X117815Y-80120D01*
X117746Y-80120D01*
X117746Y-78411D01*
X117679Y-78247D01*
X117553Y-78121D01*
X117389Y-78053D01*
X117211Y-78053D01*
X117050Y-78119D01*
X117050Y-74992D01*
X116890Y-74606D01*
X116595Y-74310D01*
X116209Y-74150D01*
X115792Y-74149D01*
X115406Y-74309D01*
X115110Y-74604D01*
X114950Y-74990D01*
X114949Y-75407D01*
X115109Y-75794D01*
X115404Y-76089D01*
X115790Y-76249D01*
X116207Y-76250D01*
X116594Y-76090D01*
X116889Y-75795D01*
X117049Y-75409D01*
X117050Y-74992D01*
X117050Y-78119D01*
X117047Y-78120D01*
X116921Y-78246D01*
X116853Y-78410D01*
X116853Y-78588D01*
X116920Y-78752D01*
X117046Y-78878D01*
X117210Y-78946D01*
X117388Y-78946D01*
X117552Y-78879D01*
X117678Y-78753D01*
X117746Y-78589D01*
X117746Y-78411D01*
X117746Y-80120D01*
X117585Y-80119D01*
X117371Y-80208D01*
X117208Y-80371D01*
X117200Y-80391D01*
X117191Y-80371D01*
X117028Y-80208D01*
X116815Y-80120D01*
X116585Y-80119D01*
X116371Y-80208D01*
X116208Y-80371D01*
X116120Y-80584D01*
X116119Y-80814D01*
X116208Y-81028D01*
X116371Y-81191D01*
X116584Y-81279D01*
X116814Y-81280D01*
X117028Y-81191D01*
X117191Y-81028D01*
X117199Y-81008D01*
X117208Y-81028D01*
X117371Y-81191D01*
X117584Y-81279D01*
X117814Y-81280D01*
X118028Y-81191D01*
X118191Y-81028D01*
X118279Y-80815D01*
X118280Y-80585D01*
X118280Y-81799D01*
X118092Y-81987D01*
X117873Y-82030D01*
X114346Y-82030D01*
X114346Y-70311D01*
X114279Y-70147D01*
X114153Y-70021D01*
X113989Y-69953D01*
X113811Y-69953D01*
X113647Y-70020D01*
X113521Y-70146D01*
X113453Y-70310D01*
X113453Y-70488D01*
X113520Y-70652D01*
X113646Y-70778D01*
X113810Y-70846D01*
X113988Y-70846D01*
X114152Y-70779D01*
X114278Y-70653D01*
X114346Y-70489D01*
X114346Y-70311D01*
X114346Y-82030D01*
X114086Y-82030D01*
X114086Y-81103D01*
X114012Y-80924D01*
X113875Y-80788D01*
X113697Y-80713D01*
X113503Y-80713D01*
X113425Y-80746D01*
X113425Y-76846D01*
X113425Y-73346D01*
X113352Y-73169D01*
X113352Y-69457D01*
X113339Y-69279D01*
X113295Y-69174D01*
X113211Y-69159D01*
X113140Y-69230D01*
X113140Y-69088D01*
X113125Y-69004D01*
X112957Y-68947D01*
X112779Y-68960D01*
X112674Y-69004D01*
X112659Y-69088D01*
X112900Y-69329D01*
X113140Y-69088D01*
X113140Y-69230D01*
X112970Y-69400D01*
X113211Y-69640D01*
X113295Y-69625D01*
X113352Y-69457D01*
X113352Y-73169D01*
X113345Y-73153D01*
X113197Y-73005D01*
X113140Y-72981D01*
X113140Y-69711D01*
X112900Y-69470D01*
X112829Y-69541D01*
X112829Y-69400D01*
X112588Y-69159D01*
X112504Y-69174D01*
X112447Y-69342D01*
X112460Y-69520D01*
X112504Y-69625D01*
X112588Y-69640D01*
X112829Y-69400D01*
X112829Y-69541D01*
X112659Y-69711D01*
X112674Y-69795D01*
X112842Y-69852D01*
X113020Y-69839D01*
X113125Y-69795D01*
X113140Y-69711D01*
X113140Y-72981D01*
X113004Y-72925D01*
X112796Y-72924D01*
X112603Y-73004D01*
X112455Y-73152D01*
X112375Y-73345D01*
X112374Y-73553D01*
X112454Y-73747D01*
X112602Y-73894D01*
X112795Y-73974D01*
X113003Y-73975D01*
X113197Y-73895D01*
X113344Y-73747D01*
X113424Y-73554D01*
X113425Y-73346D01*
X113425Y-76846D01*
X113345Y-76653D01*
X113197Y-76505D01*
X113004Y-76425D01*
X112796Y-76424D01*
X112603Y-76504D01*
X112455Y-76652D01*
X112375Y-76845D01*
X112374Y-77053D01*
X112454Y-77247D01*
X112602Y-77394D01*
X112795Y-77474D01*
X113003Y-77475D01*
X113197Y-77395D01*
X113344Y-77247D01*
X113424Y-77054D01*
X113425Y-76846D01*
X113425Y-80746D01*
X113324Y-80787D01*
X113249Y-80862D01*
X113175Y-80788D01*
X112997Y-80713D01*
X112803Y-80713D01*
X112624Y-80787D01*
X112488Y-80924D01*
X112468Y-80970D01*
X112468Y-80860D01*
X112449Y-80771D01*
X112346Y-80736D01*
X112346Y-70311D01*
X112279Y-70147D01*
X112153Y-70021D01*
X111989Y-69953D01*
X111811Y-69953D01*
X111647Y-70020D01*
X111521Y-70146D01*
X111453Y-70310D01*
X111453Y-70488D01*
X111520Y-70652D01*
X111646Y-70778D01*
X111810Y-70846D01*
X111988Y-70846D01*
X112152Y-70779D01*
X112278Y-70653D01*
X112346Y-70489D01*
X112346Y-70311D01*
X112346Y-80736D01*
X112266Y-80708D01*
X112073Y-80720D01*
X111950Y-80771D01*
X111931Y-80860D01*
X112200Y-81129D01*
X112468Y-80860D01*
X112468Y-80970D01*
X112446Y-81024D01*
X112270Y-81200D01*
X112446Y-81375D01*
X112487Y-81475D01*
X112624Y-81611D01*
X112802Y-81686D01*
X112996Y-81686D01*
X113175Y-81612D01*
X113250Y-81537D01*
X113324Y-81611D01*
X113502Y-81686D01*
X113696Y-81686D01*
X113875Y-81612D01*
X114011Y-81475D01*
X114086Y-81297D01*
X114086Y-81103D01*
X114086Y-82030D01*
X112468Y-82030D01*
X112468Y-81539D01*
X112200Y-81270D01*
X112129Y-81341D01*
X112129Y-81200D01*
X111860Y-80931D01*
X111771Y-80950D01*
X111708Y-81133D01*
X111720Y-81326D01*
X111771Y-81449D01*
X111860Y-81468D01*
X112129Y-81200D01*
X112129Y-81341D01*
X111931Y-81539D01*
X111950Y-81628D01*
X112133Y-81691D01*
X112326Y-81679D01*
X112449Y-81628D01*
X112468Y-81539D01*
X112468Y-82030D01*
X110566Y-82030D01*
X110566Y-80807D01*
X110495Y-80636D01*
X110364Y-80504D01*
X110193Y-80433D01*
X110091Y-80433D01*
X110091Y-79366D01*
X110079Y-79173D01*
X110028Y-79050D01*
X109939Y-79031D01*
X109868Y-79101D01*
X109868Y-78960D01*
X109849Y-78871D01*
X109666Y-78808D01*
X109473Y-78820D01*
X109350Y-78871D01*
X109331Y-78960D01*
X109600Y-79229D01*
X109868Y-78960D01*
X109868Y-79101D01*
X109670Y-79300D01*
X109939Y-79568D01*
X110028Y-79549D01*
X110091Y-79366D01*
X110091Y-80433D01*
X110007Y-80433D01*
X109868Y-80490D01*
X109868Y-79639D01*
X109600Y-79370D01*
X109529Y-79441D01*
X109529Y-79300D01*
X109260Y-79031D01*
X109171Y-79050D01*
X109108Y-79233D01*
X109120Y-79426D01*
X109171Y-79549D01*
X109260Y-79568D01*
X109529Y-79300D01*
X109529Y-79441D01*
X109331Y-79639D01*
X109350Y-79728D01*
X109533Y-79791D01*
X109726Y-79779D01*
X109849Y-79728D01*
X109868Y-79639D01*
X109868Y-80490D01*
X109836Y-80504D01*
X109704Y-80635D01*
X109633Y-80806D01*
X109633Y-80992D01*
X109704Y-81163D01*
X109835Y-81295D01*
X110006Y-81366D01*
X110192Y-81366D01*
X110363Y-81295D01*
X110495Y-81164D01*
X110566Y-80993D01*
X110566Y-80807D01*
X110566Y-82030D01*
X109566Y-82030D01*
X109566Y-80807D01*
X109495Y-80636D01*
X109364Y-80504D01*
X109193Y-80433D01*
X109086Y-80433D01*
X109086Y-79203D01*
X109012Y-79024D01*
X108875Y-78888D01*
X108697Y-78813D01*
X108503Y-78813D01*
X108324Y-78887D01*
X108188Y-79024D01*
X108113Y-79202D01*
X108113Y-79396D01*
X108187Y-79575D01*
X108324Y-79711D01*
X108502Y-79786D01*
X108696Y-79786D01*
X108875Y-79712D01*
X109011Y-79575D01*
X109086Y-79397D01*
X109086Y-79203D01*
X109086Y-80433D01*
X109007Y-80433D01*
X108836Y-80504D01*
X108704Y-80635D01*
X108633Y-80806D01*
X108633Y-80992D01*
X108704Y-81163D01*
X108835Y-81295D01*
X109006Y-81366D01*
X109192Y-81366D01*
X109363Y-81295D01*
X109495Y-81164D01*
X109566Y-80993D01*
X109566Y-80807D01*
X109566Y-82030D01*
X108566Y-82030D01*
X108566Y-80807D01*
X108495Y-80636D01*
X108364Y-80504D01*
X108193Y-80433D01*
X108007Y-80433D01*
X107836Y-80504D01*
X107704Y-80635D01*
X107633Y-80806D01*
X107633Y-80992D01*
X107704Y-81163D01*
X107835Y-81295D01*
X108006Y-81366D01*
X108192Y-81366D01*
X108363Y-81295D01*
X108495Y-81164D01*
X108566Y-80993D01*
X108566Y-80807D01*
X108566Y-82030D01*
X106646Y-82030D01*
X106646Y-70311D01*
X106579Y-70147D01*
X106453Y-70021D01*
X106289Y-69953D01*
X106111Y-69953D01*
X105947Y-70020D01*
X105821Y-70146D01*
X105753Y-70310D01*
X105753Y-70488D01*
X105820Y-70652D01*
X105946Y-70778D01*
X106110Y-70846D01*
X106288Y-70846D01*
X106452Y-70779D01*
X106578Y-70653D01*
X106646Y-70489D01*
X106646Y-70311D01*
X106646Y-82030D01*
X106391Y-82030D01*
X106391Y-81266D01*
X106379Y-81073D01*
X106328Y-80950D01*
X106239Y-80931D01*
X106168Y-81001D01*
X106168Y-80860D01*
X106149Y-80771D01*
X105966Y-80708D01*
X105773Y-80720D01*
X105725Y-80740D01*
X105725Y-76846D01*
X105725Y-73346D01*
X105652Y-73169D01*
X105652Y-69457D01*
X105639Y-69279D01*
X105595Y-69174D01*
X105511Y-69159D01*
X105440Y-69230D01*
X105440Y-69088D01*
X105425Y-69004D01*
X105257Y-68947D01*
X105079Y-68960D01*
X104974Y-69004D01*
X104959Y-69088D01*
X105200Y-69329D01*
X105440Y-69088D01*
X105440Y-69230D01*
X105270Y-69400D01*
X105511Y-69640D01*
X105595Y-69625D01*
X105652Y-69457D01*
X105652Y-73169D01*
X105645Y-73153D01*
X105497Y-73005D01*
X105440Y-72981D01*
X105440Y-69711D01*
X105200Y-69470D01*
X105129Y-69541D01*
X105129Y-69400D01*
X104888Y-69159D01*
X104804Y-69174D01*
X104747Y-69342D01*
X104760Y-69520D01*
X104804Y-69625D01*
X104888Y-69640D01*
X105129Y-69400D01*
X105129Y-69541D01*
X104959Y-69711D01*
X104974Y-69795D01*
X105142Y-69852D01*
X105320Y-69839D01*
X105425Y-69795D01*
X105440Y-69711D01*
X105440Y-72981D01*
X105304Y-72925D01*
X105096Y-72924D01*
X104903Y-73004D01*
X104755Y-73152D01*
X104675Y-73345D01*
X104674Y-73553D01*
X104754Y-73747D01*
X104902Y-73894D01*
X105095Y-73974D01*
X105303Y-73975D01*
X105497Y-73895D01*
X105644Y-73747D01*
X105724Y-73554D01*
X105725Y-73346D01*
X105725Y-76846D01*
X105645Y-76653D01*
X105497Y-76505D01*
X105304Y-76425D01*
X105096Y-76424D01*
X104903Y-76504D01*
X104755Y-76652D01*
X104675Y-76845D01*
X104674Y-77053D01*
X104754Y-77247D01*
X104902Y-77394D01*
X105095Y-77474D01*
X105303Y-77475D01*
X105497Y-77395D01*
X105644Y-77247D01*
X105724Y-77054D01*
X105725Y-76846D01*
X105725Y-80740D01*
X105650Y-80771D01*
X105631Y-80860D01*
X105900Y-81129D01*
X106168Y-80860D01*
X106168Y-81001D01*
X105970Y-81200D01*
X106239Y-81468D01*
X106328Y-81449D01*
X106391Y-81266D01*
X106391Y-82030D01*
X106168Y-82030D01*
X106168Y-81539D01*
X105900Y-81270D01*
X105829Y-81341D01*
X105829Y-81200D01*
X105653Y-81024D01*
X105612Y-80924D01*
X105475Y-80788D01*
X105297Y-80713D01*
X105103Y-80713D01*
X104924Y-80787D01*
X104849Y-80862D01*
X104775Y-80788D01*
X104646Y-80734D01*
X104646Y-70311D01*
X104579Y-70147D01*
X104453Y-70021D01*
X104289Y-69953D01*
X104111Y-69953D01*
X103947Y-70020D01*
X103821Y-70146D01*
X103753Y-70310D01*
X103753Y-70488D01*
X103820Y-70652D01*
X103946Y-70778D01*
X104110Y-70846D01*
X104288Y-70846D01*
X104452Y-70779D01*
X104578Y-70653D01*
X104646Y-70489D01*
X104646Y-70311D01*
X104646Y-80734D01*
X104597Y-80713D01*
X104403Y-80713D01*
X104224Y-80787D01*
X104088Y-80924D01*
X104013Y-81102D01*
X104013Y-81296D01*
X104087Y-81475D01*
X104224Y-81611D01*
X104402Y-81686D01*
X104596Y-81686D01*
X104775Y-81612D01*
X104850Y-81537D01*
X104924Y-81611D01*
X105102Y-81686D01*
X105296Y-81686D01*
X105475Y-81612D01*
X105611Y-81475D01*
X105653Y-81375D01*
X105829Y-81200D01*
X105829Y-81341D01*
X105631Y-81539D01*
X105650Y-81628D01*
X105833Y-81691D01*
X106026Y-81679D01*
X106149Y-81628D01*
X106168Y-81539D01*
X106168Y-82030D01*
X103250Y-82030D01*
X103250Y-74992D01*
X103090Y-74606D01*
X102795Y-74310D01*
X102409Y-74150D01*
X101992Y-74149D01*
X101725Y-74260D01*
X101725Y-69396D01*
X101645Y-69203D01*
X101497Y-69055D01*
X101304Y-68975D01*
X101096Y-68974D01*
X100903Y-69054D01*
X100755Y-69202D01*
X100699Y-69335D01*
X100645Y-69203D01*
X100497Y-69055D01*
X100304Y-68975D01*
X100096Y-68974D01*
X99903Y-69054D01*
X99755Y-69202D01*
X99675Y-69395D01*
X99674Y-69603D01*
X99754Y-69797D01*
X99902Y-69944D01*
X100095Y-70024D01*
X100303Y-70025D01*
X100497Y-69945D01*
X100644Y-69797D01*
X100700Y-69664D01*
X100754Y-69797D01*
X100902Y-69944D01*
X101095Y-70024D01*
X101303Y-70025D01*
X101497Y-69945D01*
X101644Y-69797D01*
X101724Y-69604D01*
X101725Y-69396D01*
X101725Y-74260D01*
X101606Y-74309D01*
X101310Y-74604D01*
X101150Y-74990D01*
X101149Y-75407D01*
X101309Y-75794D01*
X101604Y-76089D01*
X101990Y-76249D01*
X102407Y-76250D01*
X102794Y-76090D01*
X103089Y-75795D01*
X103249Y-75409D01*
X103250Y-74992D01*
X103250Y-82030D01*
X102280Y-82030D01*
X102280Y-80485D01*
X102191Y-80271D01*
X102028Y-80108D01*
X101815Y-80020D01*
X101585Y-80019D01*
X101371Y-80108D01*
X101246Y-80232D01*
X101246Y-78411D01*
X101179Y-78247D01*
X101053Y-78121D01*
X100889Y-78053D01*
X100711Y-78053D01*
X100547Y-78120D01*
X100421Y-78246D01*
X100353Y-78410D01*
X100353Y-78588D01*
X100420Y-78752D01*
X100546Y-78878D01*
X100710Y-78946D01*
X100888Y-78946D01*
X101052Y-78879D01*
X101178Y-78753D01*
X101246Y-78589D01*
X101246Y-78411D01*
X101246Y-80232D01*
X101208Y-80271D01*
X101200Y-80291D01*
X101191Y-80271D01*
X101028Y-80108D01*
X100815Y-80020D01*
X100585Y-80019D01*
X100371Y-80108D01*
X100208Y-80271D01*
X100120Y-80484D01*
X100119Y-80714D01*
X100208Y-80928D01*
X100371Y-81091D01*
X100584Y-81179D01*
X100814Y-81180D01*
X101028Y-81091D01*
X101191Y-80928D01*
X101199Y-80908D01*
X101208Y-80928D01*
X101371Y-81091D01*
X101584Y-81179D01*
X101814Y-81180D01*
X102028Y-81091D01*
X102191Y-80928D01*
X102279Y-80715D01*
X102280Y-80485D01*
X102280Y-82030D01*
X100228Y-82030D01*
X100019Y-81988D01*
X99503Y-81442D01*
X99469Y-81273D01*
X99469Y-78801D01*
X99546Y-78878D01*
X99710Y-78946D01*
X99888Y-78946D01*
X100052Y-78879D01*
X100178Y-78753D01*
X100246Y-78589D01*
X100246Y-78411D01*
X100179Y-78247D01*
X100053Y-78121D01*
X99889Y-78053D01*
X99711Y-78053D01*
X99547Y-78120D01*
X99469Y-78198D01*
X99469Y-69526D01*
X99503Y-69357D01*
X100019Y-68811D01*
X100228Y-68769D01*
X117873Y-68769D01*
X118072Y-68809D01*
X118569Y-69223D01*
X118630Y-69528D01*
X118630Y-78198D01*
X118553Y-78121D01*
X118425Y-78068D01*
X118425Y-69396D01*
X118345Y-69203D01*
X118197Y-69055D01*
X118004Y-68975D01*
X117796Y-68974D01*
X117603Y-69054D01*
X117455Y-69202D01*
X117399Y-69335D01*
X117345Y-69203D01*
X117197Y-69055D01*
X117004Y-68975D01*
X116796Y-68974D01*
X116603Y-69054D01*
X116455Y-69202D01*
X116375Y-69395D01*
X116374Y-69603D01*
X116454Y-69797D01*
X116602Y-69944D01*
X116795Y-70024D01*
X117003Y-70025D01*
X117197Y-69945D01*
X117344Y-69797D01*
X117400Y-69664D01*
X117454Y-69797D01*
X117602Y-69944D01*
X117795Y-70024D01*
X118003Y-70025D01*
X118197Y-69945D01*
X118344Y-69797D01*
X118424Y-69604D01*
X118425Y-69396D01*
X118425Y-78068D01*
X118389Y-78053D01*
X118211Y-78053D01*
X118047Y-78120D01*
X117921Y-78246D01*
X117853Y-78410D01*
X117853Y-78588D01*
X117920Y-78752D01*
X118046Y-78878D01*
X118210Y-78946D01*
X118388Y-78946D01*
X118552Y-78879D01*
X118630Y-78801D01*
X118630Y-81271D01*
X118630Y-81271D01*
G37*
G54D18*
X118630Y-81271D02*
X118586Y-81492D01*
X118280Y-81799D01*
X118280Y-80585D01*
X118191Y-80371D01*
X118028Y-80208D01*
X117815Y-80120D01*
X117746Y-80120D01*
X117746Y-78411D01*
X117679Y-78247D01*
X117553Y-78121D01*
X117389Y-78053D01*
X117211Y-78053D01*
X117050Y-78119D01*
X117050Y-74992D01*
X116890Y-74606D01*
X116595Y-74310D01*
X116209Y-74150D01*
X115792Y-74149D01*
X115406Y-74309D01*
X115110Y-74604D01*
X114950Y-74990D01*
X114949Y-75407D01*
X115109Y-75794D01*
X115404Y-76089D01*
X115790Y-76249D01*
X116207Y-76250D01*
X116594Y-76090D01*
X116889Y-75795D01*
X117049Y-75409D01*
X117050Y-74992D01*
X117050Y-78119D01*
X117047Y-78120D01*
X116921Y-78246D01*
X116853Y-78410D01*
X116853Y-78588D01*
X116920Y-78752D01*
X117046Y-78878D01*
X117210Y-78946D01*
X117388Y-78946D01*
X117552Y-78879D01*
X117678Y-78753D01*
X117746Y-78589D01*
X117746Y-78411D01*
X117746Y-80120D01*
X117585Y-80119D01*
X117371Y-80208D01*
X117208Y-80371D01*
X117200Y-80391D01*
X117191Y-80371D01*
X117028Y-80208D01*
X116815Y-80120D01*
X116585Y-80119D01*
X116371Y-80208D01*
X116208Y-80371D01*
X116120Y-80584D01*
X116119Y-80814D01*
X116208Y-81028D01*
X116371Y-81191D01*
X116584Y-81279D01*
X116814Y-81280D01*
X117028Y-81191D01*
X117191Y-81028D01*
X117199Y-81008D01*
X117208Y-81028D01*
X117371Y-81191D01*
X117584Y-81279D01*
X117814Y-81280D01*
X118028Y-81191D01*
X118191Y-81028D01*
X118279Y-80815D01*
X118280Y-80585D01*
X118280Y-81799D01*
X118092Y-81987D01*
X117873Y-82030D01*
X114346Y-82030D01*
X114346Y-70311D01*
X114279Y-70147D01*
X114153Y-70021D01*
X113989Y-69953D01*
X113811Y-69953D01*
X113647Y-70020D01*
X113521Y-70146D01*
X113453Y-70310D01*
X113453Y-70488D01*
X113520Y-70652D01*
X113646Y-70778D01*
X113810Y-70846D01*
X113988Y-70846D01*
X114152Y-70779D01*
X114278Y-70653D01*
X114346Y-70489D01*
X114346Y-70311D01*
X114346Y-82030D01*
X114086Y-82030D01*
X114086Y-81103D01*
X114012Y-80924D01*
X113875Y-80788D01*
X113697Y-80713D01*
X113503Y-80713D01*
X113425Y-80746D01*
X113425Y-76846D01*
X113425Y-73346D01*
X113352Y-73169D01*
X113352Y-69457D01*
X113339Y-69279D01*
X113295Y-69174D01*
X113211Y-69159D01*
X113140Y-69230D01*
X113140Y-69088D01*
X113125Y-69004D01*
X112957Y-68947D01*
X112779Y-68960D01*
X112674Y-69004D01*
X112659Y-69088D01*
X112900Y-69329D01*
X113140Y-69088D01*
X113140Y-69230D01*
X112970Y-69400D01*
X113211Y-69640D01*
X113295Y-69625D01*
X113352Y-69457D01*
X113352Y-73169D01*
X113345Y-73153D01*
X113197Y-73005D01*
X113140Y-72981D01*
X113140Y-69711D01*
X112900Y-69470D01*
X112829Y-69541D01*
X112829Y-69400D01*
X112588Y-69159D01*
X112504Y-69174D01*
X112447Y-69342D01*
X112460Y-69520D01*
X112504Y-69625D01*
X112588Y-69640D01*
X112829Y-69400D01*
X112829Y-69541D01*
X112659Y-69711D01*
X112674Y-69795D01*
X112842Y-69852D01*
X113020Y-69839D01*
X113125Y-69795D01*
X113140Y-69711D01*
X113140Y-72981D01*
X113004Y-72925D01*
X112796Y-72924D01*
X112603Y-73004D01*
X112455Y-73152D01*
X112375Y-73345D01*
X112374Y-73553D01*
X112454Y-73747D01*
X112602Y-73894D01*
X112795Y-73974D01*
X113003Y-73975D01*
X113197Y-73895D01*
X113344Y-73747D01*
X113424Y-73554D01*
X113425Y-73346D01*
X113425Y-76846D01*
X113345Y-76653D01*
X113197Y-76505D01*
X113004Y-76425D01*
X112796Y-76424D01*
X112603Y-76504D01*
X112455Y-76652D01*
X112375Y-76845D01*
X112374Y-77053D01*
X112454Y-77247D01*
X112602Y-77394D01*
X112795Y-77474D01*
X113003Y-77475D01*
X113197Y-77395D01*
X113344Y-77247D01*
X113424Y-77054D01*
X113425Y-76846D01*
X113425Y-80746D01*
X113324Y-80787D01*
X113249Y-80862D01*
X113175Y-80788D01*
X112997Y-80713D01*
X112803Y-80713D01*
X112624Y-80787D01*
X112488Y-80924D01*
X112468Y-80970D01*
X112468Y-80860D01*
X112449Y-80771D01*
X112346Y-80736D01*
X112346Y-70311D01*
X112279Y-70147D01*
X112153Y-70021D01*
X111989Y-69953D01*
X111811Y-69953D01*
X111647Y-70020D01*
X111521Y-70146D01*
X111453Y-70310D01*
X111453Y-70488D01*
X111520Y-70652D01*
X111646Y-70778D01*
X111810Y-70846D01*
X111988Y-70846D01*
X112152Y-70779D01*
X112278Y-70653D01*
X112346Y-70489D01*
X112346Y-70311D01*
X112346Y-80736D01*
X112266Y-80708D01*
X112073Y-80720D01*
X111950Y-80771D01*
X111931Y-80860D01*
X112200Y-81129D01*
X112468Y-80860D01*
X112468Y-80970D01*
X112446Y-81024D01*
X112270Y-81200D01*
X112446Y-81375D01*
X112487Y-81475D01*
X112624Y-81611D01*
X112802Y-81686D01*
X112996Y-81686D01*
X113175Y-81612D01*
X113250Y-81537D01*
X113324Y-81611D01*
X113502Y-81686D01*
X113696Y-81686D01*
X113875Y-81612D01*
X114011Y-81475D01*
X114086Y-81297D01*
X114086Y-81103D01*
X114086Y-82030D01*
X112468Y-82030D01*
X112468Y-81539D01*
X112200Y-81270D01*
X112129Y-81341D01*
X112129Y-81200D01*
X111860Y-80931D01*
X111771Y-80950D01*
X111708Y-81133D01*
X111720Y-81326D01*
X111771Y-81449D01*
X111860Y-81468D01*
X112129Y-81200D01*
X112129Y-81341D01*
X111931Y-81539D01*
X111950Y-81628D01*
X112133Y-81691D01*
X112326Y-81679D01*
X112449Y-81628D01*
X112468Y-81539D01*
X112468Y-82030D01*
X110566Y-82030D01*
X110566Y-80807D01*
X110495Y-80636D01*
X110364Y-80504D01*
X110193Y-80433D01*
X110091Y-80433D01*
X110091Y-79366D01*
X110079Y-79173D01*
X110028Y-79050D01*
X109939Y-79031D01*
X109868Y-79101D01*
X109868Y-78960D01*
X109849Y-78871D01*
X109666Y-78808D01*
X109473Y-78820D01*
X109350Y-78871D01*
X109331Y-78960D01*
X109600Y-79229D01*
X109868Y-78960D01*
X109868Y-79101D01*
X109670Y-79300D01*
X109939Y-79568D01*
X110028Y-79549D01*
X110091Y-79366D01*
X110091Y-80433D01*
X110007Y-80433D01*
X109868Y-80490D01*
X109868Y-79639D01*
X109600Y-79370D01*
X109529Y-79441D01*
X109529Y-79300D01*
X109260Y-79031D01*
X109171Y-79050D01*
X109108Y-79233D01*
X109120Y-79426D01*
X109171Y-79549D01*
X109260Y-79568D01*
X109529Y-79300D01*
X109529Y-79441D01*
X109331Y-79639D01*
X109350Y-79728D01*
X109533Y-79791D01*
X109726Y-79779D01*
X109849Y-79728D01*
X109868Y-79639D01*
X109868Y-80490D01*
X109836Y-80504D01*
X109704Y-80635D01*
X109633Y-80806D01*
X109633Y-80992D01*
X109704Y-81163D01*
X109835Y-81295D01*
X110006Y-81366D01*
X110192Y-81366D01*
X110363Y-81295D01*
X110495Y-81164D01*
X110566Y-80993D01*
X110566Y-80807D01*
X110566Y-82030D01*
X109566Y-82030D01*
X109566Y-80807D01*
X109495Y-80636D01*
X109364Y-80504D01*
X109193Y-80433D01*
X109086Y-80433D01*
X109086Y-79203D01*
X109012Y-79024D01*
X108875Y-78888D01*
X108697Y-78813D01*
X108503Y-78813D01*
X108324Y-78887D01*
X108188Y-79024D01*
X108113Y-79202D01*
X108113Y-79396D01*
X108187Y-79575D01*
X108324Y-79711D01*
X108502Y-79786D01*
X108696Y-79786D01*
X108875Y-79712D01*
X109011Y-79575D01*
X109086Y-79397D01*
X109086Y-79203D01*
X109086Y-80433D01*
X109007Y-80433D01*
X108836Y-80504D01*
X108704Y-80635D01*
X108633Y-80806D01*
X108633Y-80992D01*
X108704Y-81163D01*
X108835Y-81295D01*
X109006Y-81366D01*
X109192Y-81366D01*
X109363Y-81295D01*
X109495Y-81164D01*
X109566Y-80993D01*
X109566Y-80807D01*
X109566Y-82030D01*
X108566Y-82030D01*
X108566Y-80807D01*
X108495Y-80636D01*
X108364Y-80504D01*
X108193Y-80433D01*
X108007Y-80433D01*
X107836Y-80504D01*
X107704Y-80635D01*
X107633Y-80806D01*
X107633Y-80992D01*
X107704Y-81163D01*
X107835Y-81295D01*
X108006Y-81366D01*
X108192Y-81366D01*
X108363Y-81295D01*
X108495Y-81164D01*
X108566Y-80993D01*
X108566Y-80807D01*
X108566Y-82030D01*
X106646Y-82030D01*
X106646Y-70311D01*
X106579Y-70147D01*
X106453Y-70021D01*
X106289Y-69953D01*
X106111Y-69953D01*
X105947Y-70020D01*
X105821Y-70146D01*
X105753Y-70310D01*
X105753Y-70488D01*
X105820Y-70652D01*
X105946Y-70778D01*
X106110Y-70846D01*
X106288Y-70846D01*
X106452Y-70779D01*
X106578Y-70653D01*
X106646Y-70489D01*
X106646Y-70311D01*
X106646Y-82030D01*
X106391Y-82030D01*
X106391Y-81266D01*
X106379Y-81073D01*
X106328Y-80950D01*
X106239Y-80931D01*
X106168Y-81001D01*
X106168Y-80860D01*
X106149Y-80771D01*
X105966Y-80708D01*
X105773Y-80720D01*
X105725Y-80740D01*
X105725Y-76846D01*
X105725Y-73346D01*
X105652Y-73169D01*
X105652Y-69457D01*
X105639Y-69279D01*
X105595Y-69174D01*
X105511Y-69159D01*
X105440Y-69230D01*
X105440Y-69088D01*
X105425Y-69004D01*
X105257Y-68947D01*
X105079Y-68960D01*
X104974Y-69004D01*
X104959Y-69088D01*
X105200Y-69329D01*
X105440Y-69088D01*
X105440Y-69230D01*
X105270Y-69400D01*
X105511Y-69640D01*
X105595Y-69625D01*
X105652Y-69457D01*
X105652Y-73169D01*
X105645Y-73153D01*
X105497Y-73005D01*
X105440Y-72981D01*
X105440Y-69711D01*
X105200Y-69470D01*
X105129Y-69541D01*
X105129Y-69400D01*
X104888Y-69159D01*
X104804Y-69174D01*
X104747Y-69342D01*
X104760Y-69520D01*
X104804Y-69625D01*
X104888Y-69640D01*
X105129Y-69400D01*
X105129Y-69541D01*
X104959Y-69711D01*
X104974Y-69795D01*
X105142Y-69852D01*
X105320Y-69839D01*
X105425Y-69795D01*
X105440Y-69711D01*
X105440Y-72981D01*
X105304Y-72925D01*
X105096Y-72924D01*
X104903Y-73004D01*
X104755Y-73152D01*
X104675Y-73345D01*
X104674Y-73553D01*
X104754Y-73747D01*
X104902Y-73894D01*
X105095Y-73974D01*
X105303Y-73975D01*
X105497Y-73895D01*
X105644Y-73747D01*
X105724Y-73554D01*
X105725Y-73346D01*
X105725Y-76846D01*
X105645Y-76653D01*
X105497Y-76505D01*
X105304Y-76425D01*
X105096Y-76424D01*
X104903Y-76504D01*
X104755Y-76652D01*
X104675Y-76845D01*
X104674Y-77053D01*
X104754Y-77247D01*
X104902Y-77394D01*
X105095Y-77474D01*
X105303Y-77475D01*
X105497Y-77395D01*
X105644Y-77247D01*
X105724Y-77054D01*
X105725Y-76846D01*
X105725Y-80740D01*
X105650Y-80771D01*
X105631Y-80860D01*
X105900Y-81129D01*
X106168Y-80860D01*
X106168Y-81001D01*
X105970Y-81200D01*
X106239Y-81468D01*
X106328Y-81449D01*
X106391Y-81266D01*
X106391Y-82030D01*
X106168Y-82030D01*
X106168Y-81539D01*
X105900Y-81270D01*
X105829Y-81341D01*
X105829Y-81200D01*
X105653Y-81024D01*
X105612Y-80924D01*
X105475Y-80788D01*
X105297Y-80713D01*
X105103Y-80713D01*
X104924Y-80787D01*
X104849Y-80862D01*
X104775Y-80788D01*
X104646Y-80734D01*
X104646Y-70311D01*
X104579Y-70147D01*
X104453Y-70021D01*
X104289Y-69953D01*
X104111Y-69953D01*
X103947Y-70020D01*
X103821Y-70146D01*
X103753Y-70310D01*
X103753Y-70488D01*
X103820Y-70652D01*
X103946Y-70778D01*
X104110Y-70846D01*
X104288Y-70846D01*
X104452Y-70779D01*
X104578Y-70653D01*
X104646Y-70489D01*
X104646Y-70311D01*
X104646Y-80734D01*
X104597Y-80713D01*
X104403Y-80713D01*
X104224Y-80787D01*
X104088Y-80924D01*
X104013Y-81102D01*
X104013Y-81296D01*
X104087Y-81475D01*
X104224Y-81611D01*
X104402Y-81686D01*
X104596Y-81686D01*
X104775Y-81612D01*
X104850Y-81537D01*
X104924Y-81611D01*
X105102Y-81686D01*
X105296Y-81686D01*
X105475Y-81612D01*
X105611Y-81475D01*
X105653Y-81375D01*
X105829Y-81200D01*
X105829Y-81341D01*
X105631Y-81539D01*
X105650Y-81628D01*
X105833Y-81691D01*
X106026Y-81679D01*
X106149Y-81628D01*
X106168Y-81539D01*
X106168Y-82030D01*
X103250Y-82030D01*
X103250Y-74992D01*
X103090Y-74606D01*
X102795Y-74310D01*
X102409Y-74150D01*
X101992Y-74149D01*
X101725Y-74260D01*
X101725Y-69396D01*
X101645Y-69203D01*
X101497Y-69055D01*
X101304Y-68975D01*
X101096Y-68974D01*
X100903Y-69054D01*
X100755Y-69202D01*
X100699Y-69335D01*
X100645Y-69203D01*
X100497Y-69055D01*
X100304Y-68975D01*
X100096Y-68974D01*
X99903Y-69054D01*
X99755Y-69202D01*
X99675Y-69395D01*
X99674Y-69603D01*
X99754Y-69797D01*
X99902Y-69944D01*
X100095Y-70024D01*
X100303Y-70025D01*
X100497Y-69945D01*
X100644Y-69797D01*
X100700Y-69664D01*
X100754Y-69797D01*
X100902Y-69944D01*
X101095Y-70024D01*
X101303Y-70025D01*
X101497Y-69945D01*
X101644Y-69797D01*
X101724Y-69604D01*
X101725Y-69396D01*
X101725Y-74260D01*
X101606Y-74309D01*
X101310Y-74604D01*
X101150Y-74990D01*
X101149Y-75407D01*
X101309Y-75794D01*
X101604Y-76089D01*
X101990Y-76249D01*
X102407Y-76250D01*
X102794Y-76090D01*
X103089Y-75795D01*
X103249Y-75409D01*
X103250Y-74992D01*
X103250Y-82030D01*
X102280Y-82030D01*
X102280Y-80485D01*
X102191Y-80271D01*
X102028Y-80108D01*
X101815Y-80020D01*
X101585Y-80019D01*
X101371Y-80108D01*
X101246Y-80232D01*
X101246Y-78411D01*
X101179Y-78247D01*
X101053Y-78121D01*
X100889Y-78053D01*
X100711Y-78053D01*
X100547Y-78120D01*
X100421Y-78246D01*
X100353Y-78410D01*
X100353Y-78588D01*
X100420Y-78752D01*
X100546Y-78878D01*
X100710Y-78946D01*
X100888Y-78946D01*
X101052Y-78879D01*
X101178Y-78753D01*
X101246Y-78589D01*
X101246Y-78411D01*
X101246Y-80232D01*
X101208Y-80271D01*
X101200Y-80291D01*
X101191Y-80271D01*
X101028Y-80108D01*
X100815Y-80020D01*
X100585Y-80019D01*
X100371Y-80108D01*
X100208Y-80271D01*
X100120Y-80484D01*
X100119Y-80714D01*
X100208Y-80928D01*
X100371Y-81091D01*
X100584Y-81179D01*
X100814Y-81180D01*
X101028Y-81091D01*
X101191Y-80928D01*
X101199Y-80908D01*
X101208Y-80928D01*
X101371Y-81091D01*
X101584Y-81179D01*
X101814Y-81180D01*
X102028Y-81091D01*
X102191Y-80928D01*
X102279Y-80715D01*
X102280Y-80485D01*
X102280Y-82030D01*
X100228Y-82030D01*
X100019Y-81988D01*
X99503Y-81442D01*
X99469Y-81273D01*
X99469Y-78801D01*
X99546Y-78878D01*
X99710Y-78946D01*
X99888Y-78946D01*
X100052Y-78879D01*
X100178Y-78753D01*
X100246Y-78589D01*
X100246Y-78411D01*
X100179Y-78247D01*
X100053Y-78121D01*
X99889Y-78053D01*
X99711Y-78053D01*
X99547Y-78120D01*
X99469Y-78198D01*
X99469Y-69526D01*
X99503Y-69357D01*
X100019Y-68811D01*
X100228Y-68769D01*
X117873Y-68769D01*
X118072Y-68809D01*
X118569Y-69223D01*
X118630Y-69528D01*
X118630Y-78198D01*
X118553Y-78121D01*
X118425Y-78068D01*
X118425Y-69396D01*
X118345Y-69203D01*
X118197Y-69055D01*
X118004Y-68975D01*
X117796Y-68974D01*
X117603Y-69054D01*
X117455Y-69202D01*
X117399Y-69335D01*
X117345Y-69203D01*
X117197Y-69055D01*
X117004Y-68975D01*
X116796Y-68974D01*
X116603Y-69054D01*
X116455Y-69202D01*
X116375Y-69395D01*
X116374Y-69603D01*
X116454Y-69797D01*
X116602Y-69944D01*
X116795Y-70024D01*
X117003Y-70025D01*
X117197Y-69945D01*
X117344Y-69797D01*
X117400Y-69664D01*
X117454Y-69797D01*
X117602Y-69944D01*
X117795Y-70024D01*
X118003Y-70025D01*
X118197Y-69945D01*
X118344Y-69797D01*
X118424Y-69604D01*
X118425Y-69396D01*
X118425Y-78068D01*
X118389Y-78053D01*
X118211Y-78053D01*
X118047Y-78120D01*
X117921Y-78246D01*
X117853Y-78410D01*
X117853Y-78588D01*
X117920Y-78752D01*
X118046Y-78878D01*
X118210Y-78946D01*
X118388Y-78946D01*
X118552Y-78879D01*
X118630Y-78801D01*
X118630Y-81271D01*
M02*
