G04 (created by PCBNEW (22-Jun-2014 BZR 4027)-stable) date Tue 12 Jul 2016 21:22:19 BST*
%MOIN*%
G04 Gerber Fmt 3.4, Leading zero omitted, Abs format*
%FSLAX34Y34*%
G01*
G70*
G90*
G04 APERTURE LIST*
%ADD10C,0.00590551*%
%ADD11C,0.055*%
%ADD12C,0.0433071*%
%ADD13C,0.16*%
%ADD14C,0.0472441*%
%ADD15C,0.066*%
%ADD16C,0.0393701*%
%ADD17C,0.0551181*%
%ADD18C,0.01*%
G04 APERTURE END LIST*
G54D10*
G54D11*
X116900Y-69500D03*
X117900Y-69500D03*
X100200Y-69500D03*
X101200Y-69500D03*
G54D12*
X109100Y-80900D03*
X108100Y-80900D03*
X110100Y-80900D03*
G54D13*
X102200Y-75200D03*
X116000Y-75200D03*
G54D14*
X108600Y-79300D03*
X109600Y-79300D03*
G54D11*
X105200Y-73450D03*
X105200Y-76950D03*
X112900Y-73450D03*
X112900Y-76950D03*
G54D15*
X100700Y-80600D03*
X101700Y-80600D03*
X117700Y-80700D03*
X116700Y-80700D03*
G54D16*
X117300Y-78500D03*
X118300Y-78500D03*
X99800Y-78500D03*
X100800Y-78500D03*
G54D14*
X112200Y-81200D03*
X112900Y-81200D03*
X113600Y-81200D03*
X105900Y-81200D03*
X105200Y-81200D03*
X104500Y-81200D03*
G54D17*
X111900Y-70400D03*
X112900Y-69400D03*
X113900Y-70400D03*
X104200Y-70400D03*
X105200Y-69400D03*
X106200Y-70400D03*
G54D18*
X112900Y-81200D02*
X112900Y-80650D01*
X112900Y-80650D02*
X109950Y-77700D01*
X117900Y-70600D02*
X117900Y-69500D01*
X117500Y-71000D02*
X117900Y-70600D01*
X116700Y-71000D02*
X117500Y-71000D01*
X109950Y-77700D02*
X109950Y-74350D01*
X116100Y-70400D02*
X116700Y-71000D01*
X109950Y-74350D02*
X113900Y-70400D01*
X113900Y-70400D02*
X116100Y-70400D01*
X108600Y-79300D02*
X108300Y-79300D01*
X108100Y-79500D02*
X108100Y-80900D01*
X108300Y-79300D02*
X108100Y-79500D01*
X106200Y-72550D02*
X106200Y-70400D01*
X107950Y-74300D02*
X106200Y-72550D01*
X107950Y-77800D02*
X107950Y-74300D01*
X106200Y-70400D02*
X105200Y-70400D01*
X105200Y-70400D02*
X104300Y-69500D01*
X105200Y-80550D02*
X107950Y-77800D01*
X105200Y-81200D02*
X105200Y-80550D01*
X104300Y-69500D02*
X101200Y-69500D01*
X105200Y-73450D02*
X105250Y-73450D01*
X104500Y-79950D02*
X104500Y-81200D01*
X107100Y-77350D02*
X104500Y-79950D01*
X107100Y-75300D02*
X107100Y-77350D01*
X105250Y-73450D02*
X107100Y-75300D01*
X100800Y-78500D02*
X101800Y-78500D01*
X101800Y-78500D02*
X104500Y-81200D01*
X105200Y-76950D02*
X99850Y-76950D01*
X99350Y-79250D02*
X100700Y-80600D01*
X99350Y-77450D02*
X99350Y-79250D01*
X99850Y-76950D02*
X99350Y-77450D01*
X112900Y-76950D02*
X117750Y-76950D01*
X117750Y-76950D02*
X118700Y-77900D01*
X118700Y-77900D02*
X118700Y-79700D01*
X118700Y-79700D02*
X117700Y-80700D01*
X113600Y-81200D02*
X113600Y-79950D01*
X110900Y-75450D02*
X112900Y-73450D01*
X110900Y-77250D02*
X110900Y-75450D01*
X113600Y-79950D02*
X110900Y-77250D01*
X113600Y-81200D02*
X114300Y-81200D01*
X117500Y-79300D02*
X118300Y-78500D01*
X116200Y-79300D02*
X117500Y-79300D01*
X114300Y-81200D02*
X116200Y-79300D01*
G54D10*
G36*
X118630Y-81271D02*
X118586Y-81492D01*
X118092Y-81987D01*
X117873Y-82030D01*
X117036Y-82030D01*
X117036Y-81107D01*
X116700Y-80770D01*
X116629Y-80841D01*
X116629Y-80700D01*
X116292Y-80363D01*
X116193Y-80394D01*
X116115Y-80611D01*
X116125Y-80841D01*
X116193Y-81005D01*
X116292Y-81036D01*
X116629Y-80700D01*
X116629Y-80841D01*
X116363Y-81107D01*
X116394Y-81206D01*
X116611Y-81284D01*
X116841Y-81274D01*
X117005Y-81206D01*
X117036Y-81107D01*
X117036Y-82030D01*
X110566Y-82030D01*
X110566Y-80807D01*
X110495Y-80636D01*
X110364Y-80504D01*
X110193Y-80433D01*
X110086Y-80433D01*
X110086Y-79203D01*
X110012Y-79024D01*
X109875Y-78888D01*
X109697Y-78813D01*
X109503Y-78813D01*
X109324Y-78887D01*
X109188Y-79024D01*
X109113Y-79202D01*
X109113Y-79396D01*
X109187Y-79575D01*
X109324Y-79711D01*
X109502Y-79786D01*
X109696Y-79786D01*
X109875Y-79712D01*
X110011Y-79575D01*
X110086Y-79397D01*
X110086Y-79203D01*
X110086Y-80433D01*
X110007Y-80433D01*
X109836Y-80504D01*
X109704Y-80635D01*
X109633Y-80806D01*
X109633Y-80992D01*
X109704Y-81163D01*
X109835Y-81295D01*
X110006Y-81366D01*
X110192Y-81366D01*
X110363Y-81295D01*
X110495Y-81164D01*
X110566Y-80993D01*
X110566Y-80807D01*
X110566Y-82030D01*
X109571Y-82030D01*
X109571Y-80961D01*
X109559Y-80776D01*
X109512Y-80662D01*
X109425Y-80645D01*
X109354Y-80716D01*
X109354Y-80574D01*
X109337Y-80487D01*
X109161Y-80428D01*
X109086Y-80433D01*
X109086Y-79203D01*
X109012Y-79024D01*
X108875Y-78888D01*
X108697Y-78813D01*
X108503Y-78813D01*
X108324Y-78887D01*
X108250Y-78962D01*
X108250Y-77800D01*
X108250Y-74300D01*
X108227Y-74185D01*
X108162Y-74087D01*
X108162Y-74087D01*
X106500Y-72425D01*
X106500Y-70731D01*
X106578Y-70653D01*
X106646Y-70489D01*
X106646Y-70311D01*
X106579Y-70147D01*
X106453Y-70021D01*
X106289Y-69953D01*
X106111Y-69953D01*
X105947Y-70020D01*
X105868Y-70100D01*
X105324Y-70100D01*
X105042Y-69818D01*
X105110Y-69846D01*
X105288Y-69846D01*
X105452Y-69779D01*
X105578Y-69653D01*
X105646Y-69489D01*
X105646Y-69311D01*
X105579Y-69147D01*
X105453Y-69021D01*
X105289Y-68953D01*
X105111Y-68953D01*
X104947Y-69020D01*
X104821Y-69146D01*
X104753Y-69310D01*
X104753Y-69488D01*
X104781Y-69557D01*
X104512Y-69287D01*
X104414Y-69222D01*
X104300Y-69200D01*
X101642Y-69200D01*
X101497Y-69055D01*
X101304Y-68975D01*
X101096Y-68974D01*
X100903Y-69054D01*
X100755Y-69202D01*
X100702Y-69328D01*
X100660Y-69227D01*
X100567Y-69202D01*
X100497Y-69273D01*
X100497Y-69132D01*
X100472Y-69039D01*
X100275Y-68970D01*
X100067Y-68981D01*
X99927Y-69039D01*
X99902Y-69132D01*
X100200Y-69429D01*
X100497Y-69132D01*
X100497Y-69273D01*
X100270Y-69500D01*
X100567Y-69797D01*
X100660Y-69772D01*
X100699Y-69662D01*
X100754Y-69797D01*
X100902Y-69944D01*
X101095Y-70024D01*
X101303Y-70025D01*
X101497Y-69945D01*
X101642Y-69800D01*
X104175Y-69800D01*
X104357Y-69981D01*
X104289Y-69953D01*
X104111Y-69953D01*
X103947Y-70020D01*
X103821Y-70146D01*
X103753Y-70310D01*
X103753Y-70488D01*
X103820Y-70652D01*
X103946Y-70778D01*
X104110Y-70846D01*
X104288Y-70846D01*
X104452Y-70779D01*
X104578Y-70653D01*
X104646Y-70489D01*
X104646Y-70311D01*
X104618Y-70242D01*
X104987Y-70612D01*
X104987Y-70612D01*
X105085Y-70677D01*
X105200Y-70700D01*
X105868Y-70700D01*
X105900Y-70731D01*
X105900Y-72550D01*
X105922Y-72664D01*
X105987Y-72762D01*
X107650Y-74424D01*
X107650Y-77675D01*
X104987Y-80337D01*
X104922Y-80435D01*
X104900Y-80550D01*
X104900Y-80812D01*
X104849Y-80862D01*
X104800Y-80812D01*
X104800Y-80074D01*
X107312Y-77562D01*
X107312Y-77562D01*
X107377Y-77464D01*
X107399Y-77350D01*
X107400Y-77350D01*
X107400Y-75300D01*
X107377Y-75185D01*
X107312Y-75087D01*
X107312Y-75087D01*
X105724Y-73500D01*
X105725Y-73346D01*
X105645Y-73153D01*
X105497Y-73005D01*
X105304Y-72925D01*
X105096Y-72924D01*
X104903Y-73004D01*
X104755Y-73152D01*
X104675Y-73345D01*
X104674Y-73553D01*
X104754Y-73747D01*
X104902Y-73894D01*
X105095Y-73974D01*
X105303Y-73975D01*
X105337Y-73961D01*
X106800Y-75424D01*
X106800Y-77225D01*
X104287Y-79737D01*
X104222Y-79835D01*
X104200Y-79950D01*
X104200Y-80475D01*
X102012Y-78287D01*
X101914Y-78222D01*
X101800Y-78200D01*
X101131Y-78200D01*
X101053Y-78121D01*
X100889Y-78053D01*
X100711Y-78053D01*
X100547Y-78120D01*
X100421Y-78246D01*
X100353Y-78410D01*
X100353Y-78588D01*
X100420Y-78752D01*
X100546Y-78878D01*
X100710Y-78946D01*
X100888Y-78946D01*
X101052Y-78879D01*
X101131Y-78800D01*
X101675Y-78800D01*
X104013Y-81138D01*
X104013Y-81296D01*
X104087Y-81475D01*
X104224Y-81611D01*
X104402Y-81686D01*
X104596Y-81686D01*
X104775Y-81612D01*
X104850Y-81537D01*
X104924Y-81611D01*
X105102Y-81686D01*
X105296Y-81686D01*
X105475Y-81612D01*
X105550Y-81537D01*
X105624Y-81611D01*
X105802Y-81686D01*
X105996Y-81686D01*
X106175Y-81612D01*
X106311Y-81475D01*
X106386Y-81297D01*
X106386Y-81103D01*
X106312Y-80924D01*
X106175Y-80788D01*
X105997Y-80713D01*
X105803Y-80713D01*
X105624Y-80787D01*
X105549Y-80862D01*
X105500Y-80812D01*
X105500Y-80674D01*
X108162Y-78012D01*
X108162Y-78012D01*
X108227Y-77914D01*
X108249Y-77800D01*
X108250Y-77800D01*
X108250Y-78962D01*
X108190Y-79021D01*
X108185Y-79022D01*
X108087Y-79087D01*
X107887Y-79287D01*
X107822Y-79385D01*
X107800Y-79500D01*
X107800Y-80540D01*
X107704Y-80635D01*
X107633Y-80806D01*
X107633Y-80992D01*
X107704Y-81163D01*
X107835Y-81295D01*
X108006Y-81366D01*
X108192Y-81366D01*
X108363Y-81295D01*
X108495Y-81164D01*
X108566Y-80993D01*
X108566Y-80807D01*
X108495Y-80636D01*
X108400Y-80540D01*
X108400Y-79743D01*
X108502Y-79786D01*
X108696Y-79786D01*
X108875Y-79712D01*
X109011Y-79575D01*
X109086Y-79397D01*
X109086Y-79203D01*
X109086Y-80433D01*
X108976Y-80440D01*
X108862Y-80487D01*
X108845Y-80574D01*
X109100Y-80829D01*
X109354Y-80574D01*
X109354Y-80716D01*
X109170Y-80900D01*
X109425Y-81154D01*
X109512Y-81137D01*
X109571Y-80961D01*
X109571Y-82030D01*
X109354Y-82030D01*
X109354Y-81225D01*
X109100Y-80970D01*
X109029Y-81041D01*
X109029Y-80900D01*
X108774Y-80645D01*
X108687Y-80662D01*
X108628Y-80838D01*
X108640Y-81023D01*
X108687Y-81137D01*
X108774Y-81154D01*
X109029Y-80900D01*
X109029Y-81041D01*
X108845Y-81225D01*
X108862Y-81312D01*
X109038Y-81371D01*
X109223Y-81359D01*
X109337Y-81312D01*
X109354Y-81225D01*
X109354Y-82030D01*
X102284Y-82030D01*
X102284Y-80688D01*
X102274Y-80458D01*
X102206Y-80294D01*
X102107Y-80263D01*
X102036Y-80333D01*
X102036Y-80192D01*
X102005Y-80093D01*
X101788Y-80015D01*
X101558Y-80025D01*
X101394Y-80093D01*
X101363Y-80192D01*
X101700Y-80529D01*
X102036Y-80192D01*
X102036Y-80333D01*
X101770Y-80600D01*
X102107Y-80936D01*
X102206Y-80905D01*
X102284Y-80688D01*
X102284Y-82030D01*
X102036Y-82030D01*
X102036Y-81007D01*
X101700Y-80670D01*
X101363Y-81007D01*
X101394Y-81106D01*
X101611Y-81184D01*
X101841Y-81174D01*
X102005Y-81106D01*
X102036Y-81007D01*
X102036Y-82030D01*
X100228Y-82030D01*
X100019Y-81988D01*
X99503Y-81442D01*
X99469Y-81273D01*
X99469Y-79793D01*
X100131Y-80456D01*
X100120Y-80484D01*
X100119Y-80714D01*
X100208Y-80928D01*
X100371Y-81091D01*
X100584Y-81179D01*
X100814Y-81180D01*
X101028Y-81091D01*
X101191Y-80928D01*
X101200Y-80907D01*
X101292Y-80936D01*
X101629Y-80600D01*
X101292Y-80263D01*
X101200Y-80292D01*
X101191Y-80271D01*
X101028Y-80108D01*
X100815Y-80020D01*
X100585Y-80019D01*
X100556Y-80031D01*
X100252Y-79727D01*
X100252Y-78557D01*
X100239Y-78379D01*
X100195Y-78274D01*
X100111Y-78259D01*
X99870Y-78500D01*
X100111Y-78740D01*
X100195Y-78725D01*
X100252Y-78557D01*
X100252Y-79727D01*
X99650Y-79125D01*
X99650Y-78921D01*
X99742Y-78952D01*
X99920Y-78939D01*
X100025Y-78895D01*
X100040Y-78811D01*
X99800Y-78570D01*
X99794Y-78576D01*
X99723Y-78505D01*
X99729Y-78500D01*
X99723Y-78494D01*
X99794Y-78423D01*
X99800Y-78429D01*
X100040Y-78188D01*
X100025Y-78104D01*
X99857Y-78047D01*
X99679Y-78060D01*
X99650Y-78072D01*
X99650Y-77574D01*
X99974Y-77250D01*
X104757Y-77250D01*
X104902Y-77394D01*
X105095Y-77474D01*
X105303Y-77475D01*
X105497Y-77395D01*
X105644Y-77247D01*
X105724Y-77054D01*
X105725Y-76846D01*
X105645Y-76653D01*
X105497Y-76505D01*
X105304Y-76425D01*
X105096Y-76424D01*
X104903Y-76504D01*
X104757Y-76650D01*
X103250Y-76650D01*
X103250Y-74992D01*
X103090Y-74606D01*
X102795Y-74310D01*
X102409Y-74150D01*
X101992Y-74149D01*
X101606Y-74309D01*
X101310Y-74604D01*
X101150Y-74990D01*
X101149Y-75407D01*
X101309Y-75794D01*
X101604Y-76089D01*
X101990Y-76249D01*
X102407Y-76250D01*
X102794Y-76090D01*
X103089Y-75795D01*
X103249Y-75409D01*
X103250Y-74992D01*
X103250Y-76650D01*
X100497Y-76650D01*
X100497Y-69867D01*
X100200Y-69570D01*
X100129Y-69641D01*
X100129Y-69500D01*
X99832Y-69202D01*
X99739Y-69227D01*
X99670Y-69424D01*
X99681Y-69632D01*
X99739Y-69772D01*
X99832Y-69797D01*
X100129Y-69500D01*
X100129Y-69641D01*
X99902Y-69867D01*
X99927Y-69960D01*
X100124Y-70029D01*
X100332Y-70018D01*
X100472Y-69960D01*
X100497Y-69867D01*
X100497Y-76650D01*
X99850Y-76650D01*
X99735Y-76672D01*
X99637Y-76737D01*
X99469Y-76906D01*
X99469Y-69526D01*
X99503Y-69357D01*
X100019Y-68811D01*
X100228Y-68769D01*
X117873Y-68769D01*
X118072Y-68809D01*
X118569Y-69223D01*
X118630Y-69528D01*
X118630Y-77406D01*
X117962Y-76737D01*
X117864Y-76672D01*
X117750Y-76650D01*
X117050Y-76650D01*
X117050Y-74992D01*
X116890Y-74606D01*
X116595Y-74310D01*
X116209Y-74150D01*
X115792Y-74149D01*
X115406Y-74309D01*
X115110Y-74604D01*
X114950Y-74990D01*
X114949Y-75407D01*
X115109Y-75794D01*
X115404Y-76089D01*
X115790Y-76249D01*
X116207Y-76250D01*
X116594Y-76090D01*
X116889Y-75795D01*
X117049Y-75409D01*
X117050Y-74992D01*
X117050Y-76650D01*
X113342Y-76650D01*
X113197Y-76505D01*
X113004Y-76425D01*
X112796Y-76424D01*
X112603Y-76504D01*
X112455Y-76652D01*
X112375Y-76845D01*
X112374Y-77053D01*
X112454Y-77247D01*
X112602Y-77394D01*
X112795Y-77474D01*
X113003Y-77475D01*
X113197Y-77395D01*
X113342Y-77250D01*
X117625Y-77250D01*
X118400Y-78024D01*
X118400Y-78057D01*
X118389Y-78053D01*
X118211Y-78053D01*
X118047Y-78120D01*
X117921Y-78246D01*
X117853Y-78410D01*
X117853Y-78522D01*
X117718Y-78657D01*
X117752Y-78557D01*
X117739Y-78379D01*
X117695Y-78274D01*
X117611Y-78259D01*
X117540Y-78330D01*
X117540Y-78188D01*
X117525Y-78104D01*
X117357Y-78047D01*
X117179Y-78060D01*
X117074Y-78104D01*
X117059Y-78188D01*
X117300Y-78429D01*
X117540Y-78188D01*
X117540Y-78330D01*
X117370Y-78500D01*
X117376Y-78505D01*
X117305Y-78576D01*
X117300Y-78570D01*
X117229Y-78641D01*
X117229Y-78500D01*
X116988Y-78259D01*
X116904Y-78274D01*
X116847Y-78442D01*
X116860Y-78620D01*
X116904Y-78725D01*
X116988Y-78740D01*
X117229Y-78500D01*
X117229Y-78641D01*
X117059Y-78811D01*
X117074Y-78895D01*
X117242Y-78952D01*
X117420Y-78939D01*
X117447Y-78928D01*
X117375Y-79000D01*
X116200Y-79000D01*
X116085Y-79022D01*
X115987Y-79087D01*
X114175Y-80900D01*
X113987Y-80900D01*
X113900Y-80812D01*
X113900Y-79950D01*
X113877Y-79835D01*
X113812Y-79737D01*
X113812Y-79737D01*
X111200Y-77125D01*
X111200Y-75574D01*
X112799Y-73974D01*
X113003Y-73975D01*
X113197Y-73895D01*
X113344Y-73747D01*
X113424Y-73554D01*
X113425Y-73346D01*
X113345Y-73153D01*
X113197Y-73005D01*
X113004Y-72925D01*
X112796Y-72924D01*
X112603Y-73004D01*
X112455Y-73152D01*
X112375Y-73345D01*
X112374Y-73550D01*
X110687Y-75237D01*
X110622Y-75335D01*
X110600Y-75450D01*
X110600Y-77250D01*
X110622Y-77364D01*
X110687Y-77462D01*
X113300Y-80074D01*
X113300Y-80812D01*
X113249Y-80862D01*
X113200Y-80812D01*
X113200Y-80650D01*
X113177Y-80535D01*
X113112Y-80437D01*
X113112Y-80437D01*
X110250Y-77575D01*
X110250Y-74474D01*
X113877Y-70846D01*
X113988Y-70846D01*
X114152Y-70779D01*
X114231Y-70700D01*
X115975Y-70700D01*
X116487Y-71212D01*
X116487Y-71212D01*
X116585Y-71277D01*
X116700Y-71300D01*
X117500Y-71300D01*
X117500Y-71299D01*
X117614Y-71277D01*
X117614Y-71277D01*
X117712Y-71212D01*
X118112Y-70812D01*
X118112Y-70812D01*
X118177Y-70714D01*
X118199Y-70600D01*
X118200Y-70600D01*
X118200Y-69942D01*
X118344Y-69797D01*
X118424Y-69604D01*
X118425Y-69396D01*
X118345Y-69203D01*
X118197Y-69055D01*
X118004Y-68975D01*
X117796Y-68974D01*
X117603Y-69054D01*
X117455Y-69202D01*
X117402Y-69328D01*
X117360Y-69227D01*
X117267Y-69202D01*
X117197Y-69273D01*
X117197Y-69132D01*
X117172Y-69039D01*
X116975Y-68970D01*
X116767Y-68981D01*
X116627Y-69039D01*
X116602Y-69132D01*
X116900Y-69429D01*
X117197Y-69132D01*
X117197Y-69273D01*
X116970Y-69500D01*
X117267Y-69797D01*
X117360Y-69772D01*
X117399Y-69662D01*
X117454Y-69797D01*
X117600Y-69942D01*
X117600Y-70475D01*
X117375Y-70700D01*
X117197Y-70700D01*
X117197Y-69867D01*
X116900Y-69570D01*
X116829Y-69641D01*
X116829Y-69500D01*
X116532Y-69202D01*
X116439Y-69227D01*
X116370Y-69424D01*
X116381Y-69632D01*
X116439Y-69772D01*
X116532Y-69797D01*
X116829Y-69500D01*
X116829Y-69641D01*
X116602Y-69867D01*
X116627Y-69960D01*
X116824Y-70029D01*
X117032Y-70018D01*
X117172Y-69960D01*
X117197Y-69867D01*
X117197Y-70700D01*
X116824Y-70700D01*
X116312Y-70187D01*
X116214Y-70122D01*
X116100Y-70100D01*
X114231Y-70100D01*
X114153Y-70021D01*
X113989Y-69953D01*
X113811Y-69953D01*
X113647Y-70020D01*
X113521Y-70146D01*
X113453Y-70310D01*
X113453Y-70422D01*
X113346Y-70528D01*
X113346Y-69311D01*
X113279Y-69147D01*
X113153Y-69021D01*
X112989Y-68953D01*
X112811Y-68953D01*
X112647Y-69020D01*
X112521Y-69146D01*
X112453Y-69310D01*
X112453Y-69488D01*
X112520Y-69652D01*
X112646Y-69778D01*
X112810Y-69846D01*
X112988Y-69846D01*
X113152Y-69779D01*
X113278Y-69653D01*
X113346Y-69489D01*
X113346Y-69311D01*
X113346Y-70528D01*
X112346Y-71528D01*
X112346Y-70311D01*
X112279Y-70147D01*
X112153Y-70021D01*
X111989Y-69953D01*
X111811Y-69953D01*
X111647Y-70020D01*
X111521Y-70146D01*
X111453Y-70310D01*
X111453Y-70488D01*
X111520Y-70652D01*
X111646Y-70778D01*
X111810Y-70846D01*
X111988Y-70846D01*
X112152Y-70779D01*
X112278Y-70653D01*
X112346Y-70489D01*
X112346Y-70311D01*
X112346Y-71528D01*
X109737Y-74137D01*
X109672Y-74235D01*
X109650Y-74350D01*
X109650Y-77700D01*
X109672Y-77814D01*
X109737Y-77912D01*
X112600Y-80774D01*
X112600Y-80812D01*
X112549Y-80862D01*
X112475Y-80788D01*
X112297Y-80713D01*
X112103Y-80713D01*
X111924Y-80787D01*
X111788Y-80924D01*
X111713Y-81102D01*
X111713Y-81296D01*
X111787Y-81475D01*
X111924Y-81611D01*
X112102Y-81686D01*
X112296Y-81686D01*
X112475Y-81612D01*
X112550Y-81537D01*
X112624Y-81611D01*
X112802Y-81686D01*
X112996Y-81686D01*
X113175Y-81612D01*
X113250Y-81537D01*
X113324Y-81611D01*
X113502Y-81686D01*
X113696Y-81686D01*
X113875Y-81612D01*
X113987Y-81500D01*
X114300Y-81500D01*
X114300Y-81499D01*
X114414Y-81477D01*
X114414Y-81477D01*
X114512Y-81412D01*
X116324Y-79600D01*
X117500Y-79600D01*
X117500Y-79599D01*
X117614Y-79577D01*
X117614Y-79577D01*
X117712Y-79512D01*
X118277Y-78946D01*
X118388Y-78946D01*
X118400Y-78942D01*
X118400Y-79575D01*
X117843Y-80131D01*
X117815Y-80120D01*
X117585Y-80119D01*
X117371Y-80208D01*
X117208Y-80371D01*
X117199Y-80392D01*
X117107Y-80363D01*
X117036Y-80433D01*
X117036Y-80292D01*
X117005Y-80193D01*
X116788Y-80115D01*
X116558Y-80125D01*
X116394Y-80193D01*
X116363Y-80292D01*
X116700Y-80629D01*
X117036Y-80292D01*
X117036Y-80433D01*
X116770Y-80700D01*
X117107Y-81036D01*
X117199Y-81007D01*
X117208Y-81028D01*
X117371Y-81191D01*
X117584Y-81279D01*
X117814Y-81280D01*
X118028Y-81191D01*
X118191Y-81028D01*
X118279Y-80815D01*
X118280Y-80585D01*
X118268Y-80556D01*
X118630Y-80193D01*
X118630Y-81271D01*
X118630Y-81271D01*
G37*
G54D18*
X118630Y-81271D02*
X118586Y-81492D01*
X118092Y-81987D01*
X117873Y-82030D01*
X117036Y-82030D01*
X117036Y-81107D01*
X116700Y-80770D01*
X116629Y-80841D01*
X116629Y-80700D01*
X116292Y-80363D01*
X116193Y-80394D01*
X116115Y-80611D01*
X116125Y-80841D01*
X116193Y-81005D01*
X116292Y-81036D01*
X116629Y-80700D01*
X116629Y-80841D01*
X116363Y-81107D01*
X116394Y-81206D01*
X116611Y-81284D01*
X116841Y-81274D01*
X117005Y-81206D01*
X117036Y-81107D01*
X117036Y-82030D01*
X110566Y-82030D01*
X110566Y-80807D01*
X110495Y-80636D01*
X110364Y-80504D01*
X110193Y-80433D01*
X110086Y-80433D01*
X110086Y-79203D01*
X110012Y-79024D01*
X109875Y-78888D01*
X109697Y-78813D01*
X109503Y-78813D01*
X109324Y-78887D01*
X109188Y-79024D01*
X109113Y-79202D01*
X109113Y-79396D01*
X109187Y-79575D01*
X109324Y-79711D01*
X109502Y-79786D01*
X109696Y-79786D01*
X109875Y-79712D01*
X110011Y-79575D01*
X110086Y-79397D01*
X110086Y-79203D01*
X110086Y-80433D01*
X110007Y-80433D01*
X109836Y-80504D01*
X109704Y-80635D01*
X109633Y-80806D01*
X109633Y-80992D01*
X109704Y-81163D01*
X109835Y-81295D01*
X110006Y-81366D01*
X110192Y-81366D01*
X110363Y-81295D01*
X110495Y-81164D01*
X110566Y-80993D01*
X110566Y-80807D01*
X110566Y-82030D01*
X109571Y-82030D01*
X109571Y-80961D01*
X109559Y-80776D01*
X109512Y-80662D01*
X109425Y-80645D01*
X109354Y-80716D01*
X109354Y-80574D01*
X109337Y-80487D01*
X109161Y-80428D01*
X109086Y-80433D01*
X109086Y-79203D01*
X109012Y-79024D01*
X108875Y-78888D01*
X108697Y-78813D01*
X108503Y-78813D01*
X108324Y-78887D01*
X108250Y-78962D01*
X108250Y-77800D01*
X108250Y-74300D01*
X108227Y-74185D01*
X108162Y-74087D01*
X108162Y-74087D01*
X106500Y-72425D01*
X106500Y-70731D01*
X106578Y-70653D01*
X106646Y-70489D01*
X106646Y-70311D01*
X106579Y-70147D01*
X106453Y-70021D01*
X106289Y-69953D01*
X106111Y-69953D01*
X105947Y-70020D01*
X105868Y-70100D01*
X105324Y-70100D01*
X105042Y-69818D01*
X105110Y-69846D01*
X105288Y-69846D01*
X105452Y-69779D01*
X105578Y-69653D01*
X105646Y-69489D01*
X105646Y-69311D01*
X105579Y-69147D01*
X105453Y-69021D01*
X105289Y-68953D01*
X105111Y-68953D01*
X104947Y-69020D01*
X104821Y-69146D01*
X104753Y-69310D01*
X104753Y-69488D01*
X104781Y-69557D01*
X104512Y-69287D01*
X104414Y-69222D01*
X104300Y-69200D01*
X101642Y-69200D01*
X101497Y-69055D01*
X101304Y-68975D01*
X101096Y-68974D01*
X100903Y-69054D01*
X100755Y-69202D01*
X100702Y-69328D01*
X100660Y-69227D01*
X100567Y-69202D01*
X100497Y-69273D01*
X100497Y-69132D01*
X100472Y-69039D01*
X100275Y-68970D01*
X100067Y-68981D01*
X99927Y-69039D01*
X99902Y-69132D01*
X100200Y-69429D01*
X100497Y-69132D01*
X100497Y-69273D01*
X100270Y-69500D01*
X100567Y-69797D01*
X100660Y-69772D01*
X100699Y-69662D01*
X100754Y-69797D01*
X100902Y-69944D01*
X101095Y-70024D01*
X101303Y-70025D01*
X101497Y-69945D01*
X101642Y-69800D01*
X104175Y-69800D01*
X104357Y-69981D01*
X104289Y-69953D01*
X104111Y-69953D01*
X103947Y-70020D01*
X103821Y-70146D01*
X103753Y-70310D01*
X103753Y-70488D01*
X103820Y-70652D01*
X103946Y-70778D01*
X104110Y-70846D01*
X104288Y-70846D01*
X104452Y-70779D01*
X104578Y-70653D01*
X104646Y-70489D01*
X104646Y-70311D01*
X104618Y-70242D01*
X104987Y-70612D01*
X104987Y-70612D01*
X105085Y-70677D01*
X105200Y-70700D01*
X105868Y-70700D01*
X105900Y-70731D01*
X105900Y-72550D01*
X105922Y-72664D01*
X105987Y-72762D01*
X107650Y-74424D01*
X107650Y-77675D01*
X104987Y-80337D01*
X104922Y-80435D01*
X104900Y-80550D01*
X104900Y-80812D01*
X104849Y-80862D01*
X104800Y-80812D01*
X104800Y-80074D01*
X107312Y-77562D01*
X107312Y-77562D01*
X107377Y-77464D01*
X107399Y-77350D01*
X107400Y-77350D01*
X107400Y-75300D01*
X107377Y-75185D01*
X107312Y-75087D01*
X107312Y-75087D01*
X105724Y-73500D01*
X105725Y-73346D01*
X105645Y-73153D01*
X105497Y-73005D01*
X105304Y-72925D01*
X105096Y-72924D01*
X104903Y-73004D01*
X104755Y-73152D01*
X104675Y-73345D01*
X104674Y-73553D01*
X104754Y-73747D01*
X104902Y-73894D01*
X105095Y-73974D01*
X105303Y-73975D01*
X105337Y-73961D01*
X106800Y-75424D01*
X106800Y-77225D01*
X104287Y-79737D01*
X104222Y-79835D01*
X104200Y-79950D01*
X104200Y-80475D01*
X102012Y-78287D01*
X101914Y-78222D01*
X101800Y-78200D01*
X101131Y-78200D01*
X101053Y-78121D01*
X100889Y-78053D01*
X100711Y-78053D01*
X100547Y-78120D01*
X100421Y-78246D01*
X100353Y-78410D01*
X100353Y-78588D01*
X100420Y-78752D01*
X100546Y-78878D01*
X100710Y-78946D01*
X100888Y-78946D01*
X101052Y-78879D01*
X101131Y-78800D01*
X101675Y-78800D01*
X104013Y-81138D01*
X104013Y-81296D01*
X104087Y-81475D01*
X104224Y-81611D01*
X104402Y-81686D01*
X104596Y-81686D01*
X104775Y-81612D01*
X104850Y-81537D01*
X104924Y-81611D01*
X105102Y-81686D01*
X105296Y-81686D01*
X105475Y-81612D01*
X105550Y-81537D01*
X105624Y-81611D01*
X105802Y-81686D01*
X105996Y-81686D01*
X106175Y-81612D01*
X106311Y-81475D01*
X106386Y-81297D01*
X106386Y-81103D01*
X106312Y-80924D01*
X106175Y-80788D01*
X105997Y-80713D01*
X105803Y-80713D01*
X105624Y-80787D01*
X105549Y-80862D01*
X105500Y-80812D01*
X105500Y-80674D01*
X108162Y-78012D01*
X108162Y-78012D01*
X108227Y-77914D01*
X108249Y-77800D01*
X108250Y-77800D01*
X108250Y-78962D01*
X108190Y-79021D01*
X108185Y-79022D01*
X108087Y-79087D01*
X107887Y-79287D01*
X107822Y-79385D01*
X107800Y-79500D01*
X107800Y-80540D01*
X107704Y-80635D01*
X107633Y-80806D01*
X107633Y-80992D01*
X107704Y-81163D01*
X107835Y-81295D01*
X108006Y-81366D01*
X108192Y-81366D01*
X108363Y-81295D01*
X108495Y-81164D01*
X108566Y-80993D01*
X108566Y-80807D01*
X108495Y-80636D01*
X108400Y-80540D01*
X108400Y-79743D01*
X108502Y-79786D01*
X108696Y-79786D01*
X108875Y-79712D01*
X109011Y-79575D01*
X109086Y-79397D01*
X109086Y-79203D01*
X109086Y-80433D01*
X108976Y-80440D01*
X108862Y-80487D01*
X108845Y-80574D01*
X109100Y-80829D01*
X109354Y-80574D01*
X109354Y-80716D01*
X109170Y-80900D01*
X109425Y-81154D01*
X109512Y-81137D01*
X109571Y-80961D01*
X109571Y-82030D01*
X109354Y-82030D01*
X109354Y-81225D01*
X109100Y-80970D01*
X109029Y-81041D01*
X109029Y-80900D01*
X108774Y-80645D01*
X108687Y-80662D01*
X108628Y-80838D01*
X108640Y-81023D01*
X108687Y-81137D01*
X108774Y-81154D01*
X109029Y-80900D01*
X109029Y-81041D01*
X108845Y-81225D01*
X108862Y-81312D01*
X109038Y-81371D01*
X109223Y-81359D01*
X109337Y-81312D01*
X109354Y-81225D01*
X109354Y-82030D01*
X102284Y-82030D01*
X102284Y-80688D01*
X102274Y-80458D01*
X102206Y-80294D01*
X102107Y-80263D01*
X102036Y-80333D01*
X102036Y-80192D01*
X102005Y-80093D01*
X101788Y-80015D01*
X101558Y-80025D01*
X101394Y-80093D01*
X101363Y-80192D01*
X101700Y-80529D01*
X102036Y-80192D01*
X102036Y-80333D01*
X101770Y-80600D01*
X102107Y-80936D01*
X102206Y-80905D01*
X102284Y-80688D01*
X102284Y-82030D01*
X102036Y-82030D01*
X102036Y-81007D01*
X101700Y-80670D01*
X101363Y-81007D01*
X101394Y-81106D01*
X101611Y-81184D01*
X101841Y-81174D01*
X102005Y-81106D01*
X102036Y-81007D01*
X102036Y-82030D01*
X100228Y-82030D01*
X100019Y-81988D01*
X99503Y-81442D01*
X99469Y-81273D01*
X99469Y-79793D01*
X100131Y-80456D01*
X100120Y-80484D01*
X100119Y-80714D01*
X100208Y-80928D01*
X100371Y-81091D01*
X100584Y-81179D01*
X100814Y-81180D01*
X101028Y-81091D01*
X101191Y-80928D01*
X101200Y-80907D01*
X101292Y-80936D01*
X101629Y-80600D01*
X101292Y-80263D01*
X101200Y-80292D01*
X101191Y-80271D01*
X101028Y-80108D01*
X100815Y-80020D01*
X100585Y-80019D01*
X100556Y-80031D01*
X100252Y-79727D01*
X100252Y-78557D01*
X100239Y-78379D01*
X100195Y-78274D01*
X100111Y-78259D01*
X99870Y-78500D01*
X100111Y-78740D01*
X100195Y-78725D01*
X100252Y-78557D01*
X100252Y-79727D01*
X99650Y-79125D01*
X99650Y-78921D01*
X99742Y-78952D01*
X99920Y-78939D01*
X100025Y-78895D01*
X100040Y-78811D01*
X99800Y-78570D01*
X99794Y-78576D01*
X99723Y-78505D01*
X99729Y-78500D01*
X99723Y-78494D01*
X99794Y-78423D01*
X99800Y-78429D01*
X100040Y-78188D01*
X100025Y-78104D01*
X99857Y-78047D01*
X99679Y-78060D01*
X99650Y-78072D01*
X99650Y-77574D01*
X99974Y-77250D01*
X104757Y-77250D01*
X104902Y-77394D01*
X105095Y-77474D01*
X105303Y-77475D01*
X105497Y-77395D01*
X105644Y-77247D01*
X105724Y-77054D01*
X105725Y-76846D01*
X105645Y-76653D01*
X105497Y-76505D01*
X105304Y-76425D01*
X105096Y-76424D01*
X104903Y-76504D01*
X104757Y-76650D01*
X103250Y-76650D01*
X103250Y-74992D01*
X103090Y-74606D01*
X102795Y-74310D01*
X102409Y-74150D01*
X101992Y-74149D01*
X101606Y-74309D01*
X101310Y-74604D01*
X101150Y-74990D01*
X101149Y-75407D01*
X101309Y-75794D01*
X101604Y-76089D01*
X101990Y-76249D01*
X102407Y-76250D01*
X102794Y-76090D01*
X103089Y-75795D01*
X103249Y-75409D01*
X103250Y-74992D01*
X103250Y-76650D01*
X100497Y-76650D01*
X100497Y-69867D01*
X100200Y-69570D01*
X100129Y-69641D01*
X100129Y-69500D01*
X99832Y-69202D01*
X99739Y-69227D01*
X99670Y-69424D01*
X99681Y-69632D01*
X99739Y-69772D01*
X99832Y-69797D01*
X100129Y-69500D01*
X100129Y-69641D01*
X99902Y-69867D01*
X99927Y-69960D01*
X100124Y-70029D01*
X100332Y-70018D01*
X100472Y-69960D01*
X100497Y-69867D01*
X100497Y-76650D01*
X99850Y-76650D01*
X99735Y-76672D01*
X99637Y-76737D01*
X99469Y-76906D01*
X99469Y-69526D01*
X99503Y-69357D01*
X100019Y-68811D01*
X100228Y-68769D01*
X117873Y-68769D01*
X118072Y-68809D01*
X118569Y-69223D01*
X118630Y-69528D01*
X118630Y-77406D01*
X117962Y-76737D01*
X117864Y-76672D01*
X117750Y-76650D01*
X117050Y-76650D01*
X117050Y-74992D01*
X116890Y-74606D01*
X116595Y-74310D01*
X116209Y-74150D01*
X115792Y-74149D01*
X115406Y-74309D01*
X115110Y-74604D01*
X114950Y-74990D01*
X114949Y-75407D01*
X115109Y-75794D01*
X115404Y-76089D01*
X115790Y-76249D01*
X116207Y-76250D01*
X116594Y-76090D01*
X116889Y-75795D01*
X117049Y-75409D01*
X117050Y-74992D01*
X117050Y-76650D01*
X113342Y-76650D01*
X113197Y-76505D01*
X113004Y-76425D01*
X112796Y-76424D01*
X112603Y-76504D01*
X112455Y-76652D01*
X112375Y-76845D01*
X112374Y-77053D01*
X112454Y-77247D01*
X112602Y-77394D01*
X112795Y-77474D01*
X113003Y-77475D01*
X113197Y-77395D01*
X113342Y-77250D01*
X117625Y-77250D01*
X118400Y-78024D01*
X118400Y-78057D01*
X118389Y-78053D01*
X118211Y-78053D01*
X118047Y-78120D01*
X117921Y-78246D01*
X117853Y-78410D01*
X117853Y-78522D01*
X117718Y-78657D01*
X117752Y-78557D01*
X117739Y-78379D01*
X117695Y-78274D01*
X117611Y-78259D01*
X117540Y-78330D01*
X117540Y-78188D01*
X117525Y-78104D01*
X117357Y-78047D01*
X117179Y-78060D01*
X117074Y-78104D01*
X117059Y-78188D01*
X117300Y-78429D01*
X117540Y-78188D01*
X117540Y-78330D01*
X117370Y-78500D01*
X117376Y-78505D01*
X117305Y-78576D01*
X117300Y-78570D01*
X117229Y-78641D01*
X117229Y-78500D01*
X116988Y-78259D01*
X116904Y-78274D01*
X116847Y-78442D01*
X116860Y-78620D01*
X116904Y-78725D01*
X116988Y-78740D01*
X117229Y-78500D01*
X117229Y-78641D01*
X117059Y-78811D01*
X117074Y-78895D01*
X117242Y-78952D01*
X117420Y-78939D01*
X117447Y-78928D01*
X117375Y-79000D01*
X116200Y-79000D01*
X116085Y-79022D01*
X115987Y-79087D01*
X114175Y-80900D01*
X113987Y-80900D01*
X113900Y-80812D01*
X113900Y-79950D01*
X113877Y-79835D01*
X113812Y-79737D01*
X113812Y-79737D01*
X111200Y-77125D01*
X111200Y-75574D01*
X112799Y-73974D01*
X113003Y-73975D01*
X113197Y-73895D01*
X113344Y-73747D01*
X113424Y-73554D01*
X113425Y-73346D01*
X113345Y-73153D01*
X113197Y-73005D01*
X113004Y-72925D01*
X112796Y-72924D01*
X112603Y-73004D01*
X112455Y-73152D01*
X112375Y-73345D01*
X112374Y-73550D01*
X110687Y-75237D01*
X110622Y-75335D01*
X110600Y-75450D01*
X110600Y-77250D01*
X110622Y-77364D01*
X110687Y-77462D01*
X113300Y-80074D01*
X113300Y-80812D01*
X113249Y-80862D01*
X113200Y-80812D01*
X113200Y-80650D01*
X113177Y-80535D01*
X113112Y-80437D01*
X113112Y-80437D01*
X110250Y-77575D01*
X110250Y-74474D01*
X113877Y-70846D01*
X113988Y-70846D01*
X114152Y-70779D01*
X114231Y-70700D01*
X115975Y-70700D01*
X116487Y-71212D01*
X116487Y-71212D01*
X116585Y-71277D01*
X116700Y-71300D01*
X117500Y-71300D01*
X117500Y-71299D01*
X117614Y-71277D01*
X117614Y-71277D01*
X117712Y-71212D01*
X118112Y-70812D01*
X118112Y-70812D01*
X118177Y-70714D01*
X118199Y-70600D01*
X118200Y-70600D01*
X118200Y-69942D01*
X118344Y-69797D01*
X118424Y-69604D01*
X118425Y-69396D01*
X118345Y-69203D01*
X118197Y-69055D01*
X118004Y-68975D01*
X117796Y-68974D01*
X117603Y-69054D01*
X117455Y-69202D01*
X117402Y-69328D01*
X117360Y-69227D01*
X117267Y-69202D01*
X117197Y-69273D01*
X117197Y-69132D01*
X117172Y-69039D01*
X116975Y-68970D01*
X116767Y-68981D01*
X116627Y-69039D01*
X116602Y-69132D01*
X116900Y-69429D01*
X117197Y-69132D01*
X117197Y-69273D01*
X116970Y-69500D01*
X117267Y-69797D01*
X117360Y-69772D01*
X117399Y-69662D01*
X117454Y-69797D01*
X117600Y-69942D01*
X117600Y-70475D01*
X117375Y-70700D01*
X117197Y-70700D01*
X117197Y-69867D01*
X116900Y-69570D01*
X116829Y-69641D01*
X116829Y-69500D01*
X116532Y-69202D01*
X116439Y-69227D01*
X116370Y-69424D01*
X116381Y-69632D01*
X116439Y-69772D01*
X116532Y-69797D01*
X116829Y-69500D01*
X116829Y-69641D01*
X116602Y-69867D01*
X116627Y-69960D01*
X116824Y-70029D01*
X117032Y-70018D01*
X117172Y-69960D01*
X117197Y-69867D01*
X117197Y-70700D01*
X116824Y-70700D01*
X116312Y-70187D01*
X116214Y-70122D01*
X116100Y-70100D01*
X114231Y-70100D01*
X114153Y-70021D01*
X113989Y-69953D01*
X113811Y-69953D01*
X113647Y-70020D01*
X113521Y-70146D01*
X113453Y-70310D01*
X113453Y-70422D01*
X113346Y-70528D01*
X113346Y-69311D01*
X113279Y-69147D01*
X113153Y-69021D01*
X112989Y-68953D01*
X112811Y-68953D01*
X112647Y-69020D01*
X112521Y-69146D01*
X112453Y-69310D01*
X112453Y-69488D01*
X112520Y-69652D01*
X112646Y-69778D01*
X112810Y-69846D01*
X112988Y-69846D01*
X113152Y-69779D01*
X113278Y-69653D01*
X113346Y-69489D01*
X113346Y-69311D01*
X113346Y-70528D01*
X112346Y-71528D01*
X112346Y-70311D01*
X112279Y-70147D01*
X112153Y-70021D01*
X111989Y-69953D01*
X111811Y-69953D01*
X111647Y-70020D01*
X111521Y-70146D01*
X111453Y-70310D01*
X111453Y-70488D01*
X111520Y-70652D01*
X111646Y-70778D01*
X111810Y-70846D01*
X111988Y-70846D01*
X112152Y-70779D01*
X112278Y-70653D01*
X112346Y-70489D01*
X112346Y-70311D01*
X112346Y-71528D01*
X109737Y-74137D01*
X109672Y-74235D01*
X109650Y-74350D01*
X109650Y-77700D01*
X109672Y-77814D01*
X109737Y-77912D01*
X112600Y-80774D01*
X112600Y-80812D01*
X112549Y-80862D01*
X112475Y-80788D01*
X112297Y-80713D01*
X112103Y-80713D01*
X111924Y-80787D01*
X111788Y-80924D01*
X111713Y-81102D01*
X111713Y-81296D01*
X111787Y-81475D01*
X111924Y-81611D01*
X112102Y-81686D01*
X112296Y-81686D01*
X112475Y-81612D01*
X112550Y-81537D01*
X112624Y-81611D01*
X112802Y-81686D01*
X112996Y-81686D01*
X113175Y-81612D01*
X113250Y-81537D01*
X113324Y-81611D01*
X113502Y-81686D01*
X113696Y-81686D01*
X113875Y-81612D01*
X113987Y-81500D01*
X114300Y-81500D01*
X114300Y-81499D01*
X114414Y-81477D01*
X114414Y-81477D01*
X114512Y-81412D01*
X116324Y-79600D01*
X117500Y-79600D01*
X117500Y-79599D01*
X117614Y-79577D01*
X117614Y-79577D01*
X117712Y-79512D01*
X118277Y-78946D01*
X118388Y-78946D01*
X118400Y-78942D01*
X118400Y-79575D01*
X117843Y-80131D01*
X117815Y-80120D01*
X117585Y-80119D01*
X117371Y-80208D01*
X117208Y-80371D01*
X117199Y-80392D01*
X117107Y-80363D01*
X117036Y-80433D01*
X117036Y-80292D01*
X117005Y-80193D01*
X116788Y-80115D01*
X116558Y-80125D01*
X116394Y-80193D01*
X116363Y-80292D01*
X116700Y-80629D01*
X117036Y-80292D01*
X117036Y-80433D01*
X116770Y-80700D01*
X117107Y-81036D01*
X117199Y-81007D01*
X117208Y-81028D01*
X117371Y-81191D01*
X117584Y-81279D01*
X117814Y-81280D01*
X118028Y-81191D01*
X118191Y-81028D01*
X118279Y-80815D01*
X118280Y-80585D01*
X118268Y-80556D01*
X118630Y-80193D01*
X118630Y-81271D01*
M02*
