G04 (created by PCBNEW (22-Jun-2014 BZR 4027)-stable) date Tue 12 Jul 2016 21:22:19 BST*
%MOIN*%
G04 Gerber Fmt 3.4, Leading zero omitted, Abs format*
%FSLAX34Y34*%
G01*
G70*
G90*
G04 APERTURE LIST*
%ADD10C,0.00590551*%
%ADD11C,0.011811*%
%ADD12C,0.0001*%
G04 APERTURE END LIST*
G54D10*
G54D11*
X110112Y-74354D02*
X110084Y-74326D01*
X110028Y-74298D01*
X109887Y-74298D01*
X109831Y-74326D01*
X109803Y-74354D01*
X109774Y-74410D01*
X109774Y-74467D01*
X109803Y-74551D01*
X110140Y-74889D01*
X109774Y-74889D01*
X109409Y-74298D02*
X109353Y-74298D01*
X109296Y-74326D01*
X109268Y-74354D01*
X109240Y-74410D01*
X109212Y-74523D01*
X109212Y-74664D01*
X109240Y-74776D01*
X109268Y-74832D01*
X109296Y-74860D01*
X109353Y-74889D01*
X109409Y-74889D01*
X109465Y-74860D01*
X109493Y-74832D01*
X109521Y-74776D01*
X109549Y-74664D01*
X109549Y-74523D01*
X109521Y-74410D01*
X109493Y-74354D01*
X109465Y-74326D01*
X109409Y-74298D01*
X108650Y-74889D02*
X108987Y-74889D01*
X108818Y-74889D02*
X108818Y-74298D01*
X108875Y-74382D01*
X108931Y-74439D01*
X108987Y-74467D01*
X108143Y-74298D02*
X108256Y-74298D01*
X108312Y-74326D01*
X108340Y-74354D01*
X108396Y-74439D01*
X108425Y-74551D01*
X108425Y-74776D01*
X108396Y-74832D01*
X108368Y-74860D01*
X108312Y-74889D01*
X108200Y-74889D01*
X108143Y-74860D01*
X108115Y-74832D01*
X108087Y-74776D01*
X108087Y-74635D01*
X108115Y-74579D01*
X108143Y-74551D01*
X108200Y-74523D01*
X108312Y-74523D01*
X108368Y-74551D01*
X108396Y-74579D01*
X108425Y-74635D01*
X111616Y-73579D02*
X111813Y-73579D01*
X111813Y-73889D02*
X111813Y-73298D01*
X111532Y-73298D01*
X111054Y-73889D02*
X111054Y-73579D01*
X111082Y-73523D01*
X111138Y-73495D01*
X111251Y-73495D01*
X111307Y-73523D01*
X111054Y-73860D02*
X111110Y-73889D01*
X111251Y-73889D01*
X111307Y-73860D01*
X111335Y-73804D01*
X111335Y-73748D01*
X111307Y-73692D01*
X111251Y-73664D01*
X111110Y-73664D01*
X111054Y-73635D01*
X110520Y-73860D02*
X110576Y-73889D01*
X110688Y-73889D01*
X110745Y-73860D01*
X110773Y-73832D01*
X110801Y-73776D01*
X110801Y-73607D01*
X110773Y-73551D01*
X110745Y-73523D01*
X110688Y-73495D01*
X110576Y-73495D01*
X110520Y-73523D01*
X110042Y-73860D02*
X110098Y-73889D01*
X110210Y-73889D01*
X110267Y-73860D01*
X110295Y-73804D01*
X110295Y-73579D01*
X110267Y-73523D01*
X110210Y-73495D01*
X110098Y-73495D01*
X110042Y-73523D01*
X110013Y-73579D01*
X110013Y-73635D01*
X110295Y-73692D01*
X109676Y-73889D02*
X109732Y-73860D01*
X109760Y-73804D01*
X109760Y-73298D01*
X109226Y-73860D02*
X109282Y-73889D01*
X109395Y-73889D01*
X109451Y-73860D01*
X109479Y-73804D01*
X109479Y-73579D01*
X109451Y-73523D01*
X109395Y-73495D01*
X109282Y-73495D01*
X109226Y-73523D01*
X109198Y-73579D01*
X109198Y-73635D01*
X109479Y-73692D01*
X108973Y-73860D02*
X108917Y-73889D01*
X108804Y-73889D01*
X108748Y-73860D01*
X108720Y-73804D01*
X108720Y-73776D01*
X108748Y-73720D01*
X108804Y-73692D01*
X108889Y-73692D01*
X108945Y-73664D01*
X108973Y-73607D01*
X108973Y-73579D01*
X108945Y-73523D01*
X108889Y-73495D01*
X108804Y-73495D01*
X108748Y-73523D01*
X108495Y-73860D02*
X108439Y-73889D01*
X108326Y-73889D01*
X108270Y-73860D01*
X108242Y-73804D01*
X108242Y-73776D01*
X108270Y-73720D01*
X108326Y-73692D01*
X108411Y-73692D01*
X108467Y-73664D01*
X108495Y-73607D01*
X108495Y-73579D01*
X108467Y-73523D01*
X108411Y-73495D01*
X108326Y-73495D01*
X108270Y-73523D01*
X108073Y-73495D02*
X107848Y-73495D01*
X107989Y-73298D02*
X107989Y-73804D01*
X107961Y-73860D01*
X107904Y-73889D01*
X107848Y-73889D01*
X107426Y-73860D02*
X107483Y-73889D01*
X107595Y-73889D01*
X107651Y-73860D01*
X107679Y-73804D01*
X107679Y-73579D01*
X107651Y-73523D01*
X107595Y-73495D01*
X107483Y-73495D01*
X107426Y-73523D01*
X107398Y-73579D01*
X107398Y-73635D01*
X107679Y-73692D01*
X106892Y-73860D02*
X106948Y-73889D01*
X107061Y-73889D01*
X107117Y-73860D01*
X107145Y-73832D01*
X107173Y-73776D01*
X107173Y-73607D01*
X107145Y-73551D01*
X107117Y-73523D01*
X107061Y-73495D01*
X106948Y-73495D01*
X106892Y-73523D01*
X106639Y-73889D02*
X106639Y-73298D01*
X106386Y-73889D02*
X106386Y-73579D01*
X106414Y-73523D01*
X106470Y-73495D01*
X106555Y-73495D01*
X106611Y-73523D01*
X106639Y-73551D01*
X111448Y-72495D02*
X111026Y-72495D01*
X111279Y-72242D02*
X111448Y-73001D01*
X111082Y-72748D02*
X111504Y-72748D01*
X111251Y-73001D02*
X111082Y-72242D01*
X110632Y-72579D02*
X110548Y-72607D01*
X110520Y-72635D01*
X110492Y-72692D01*
X110492Y-72776D01*
X110520Y-72832D01*
X110548Y-72860D01*
X110604Y-72889D01*
X110829Y-72889D01*
X110829Y-72298D01*
X110632Y-72298D01*
X110576Y-72326D01*
X110548Y-72354D01*
X110520Y-72410D01*
X110520Y-72467D01*
X110548Y-72523D01*
X110576Y-72551D01*
X110632Y-72579D01*
X110829Y-72579D01*
X110238Y-72889D02*
X110238Y-72495D01*
X110238Y-72607D02*
X110210Y-72551D01*
X110182Y-72523D01*
X110126Y-72495D01*
X110070Y-72495D01*
X109873Y-72889D02*
X109873Y-72495D01*
X109873Y-72298D02*
X109901Y-72326D01*
X109873Y-72354D01*
X109845Y-72326D01*
X109873Y-72298D01*
X109873Y-72354D01*
X109620Y-72860D02*
X109564Y-72889D01*
X109451Y-72889D01*
X109395Y-72860D01*
X109367Y-72804D01*
X109367Y-72776D01*
X109395Y-72720D01*
X109451Y-72692D01*
X109535Y-72692D01*
X109592Y-72664D01*
X109620Y-72607D01*
X109620Y-72579D01*
X109592Y-72523D01*
X109535Y-72495D01*
X109451Y-72495D01*
X109395Y-72523D01*
X109198Y-72495D02*
X108973Y-72495D01*
X109114Y-72298D02*
X109114Y-72804D01*
X109085Y-72860D01*
X109029Y-72889D01*
X108973Y-72889D01*
X108692Y-72889D02*
X108748Y-72860D01*
X108776Y-72804D01*
X108776Y-72298D01*
X108242Y-72860D02*
X108298Y-72889D01*
X108411Y-72889D01*
X108467Y-72860D01*
X108495Y-72804D01*
X108495Y-72579D01*
X108467Y-72523D01*
X108411Y-72495D01*
X108298Y-72495D01*
X108242Y-72523D01*
X108214Y-72579D01*
X108214Y-72635D01*
X108495Y-72692D01*
X107764Y-72579D02*
X107679Y-72607D01*
X107651Y-72635D01*
X107623Y-72692D01*
X107623Y-72776D01*
X107651Y-72832D01*
X107679Y-72860D01*
X107736Y-72889D01*
X107961Y-72889D01*
X107961Y-72298D01*
X107764Y-72298D01*
X107707Y-72326D01*
X107679Y-72354D01*
X107651Y-72410D01*
X107651Y-72467D01*
X107679Y-72523D01*
X107707Y-72551D01*
X107764Y-72579D01*
X107961Y-72579D01*
X107286Y-72889D02*
X107342Y-72860D01*
X107370Y-72832D01*
X107398Y-72776D01*
X107398Y-72607D01*
X107370Y-72551D01*
X107342Y-72523D01*
X107286Y-72495D01*
X107201Y-72495D01*
X107145Y-72523D01*
X107117Y-72551D01*
X107089Y-72607D01*
X107089Y-72776D01*
X107117Y-72832D01*
X107145Y-72860D01*
X107201Y-72889D01*
X107286Y-72889D01*
X106920Y-72495D02*
X106695Y-72495D01*
X106836Y-72298D02*
X106836Y-72804D01*
X106808Y-72860D01*
X106751Y-72889D01*
X106695Y-72889D01*
G54D12*
G36*
X107722Y-71828D02*
X107765Y-71828D01*
X107765Y-70620D01*
X107765Y-70566D01*
X107765Y-70509D01*
X107765Y-70465D01*
X107766Y-70432D01*
X107767Y-70409D01*
X107769Y-70394D01*
X107771Y-70385D01*
X107774Y-70382D01*
X107784Y-70380D01*
X107805Y-70375D01*
X107836Y-70369D01*
X107875Y-70361D01*
X107919Y-70353D01*
X107948Y-70348D01*
X107994Y-70339D01*
X108036Y-70331D01*
X108071Y-70324D01*
X108097Y-70318D01*
X108112Y-70315D01*
X108116Y-70313D01*
X108120Y-70305D01*
X108129Y-70286D01*
X108141Y-70259D01*
X108155Y-70227D01*
X108170Y-70192D01*
X108185Y-70156D01*
X108199Y-70122D01*
X108211Y-70093D01*
X108219Y-70071D01*
X108224Y-70058D01*
X108224Y-70057D01*
X108220Y-70047D01*
X108210Y-70028D01*
X108194Y-70004D01*
X108179Y-69981D01*
X108135Y-69919D01*
X108100Y-69867D01*
X108073Y-69826D01*
X108053Y-69795D01*
X108040Y-69773D01*
X108034Y-69760D01*
X108033Y-69758D01*
X108038Y-69750D01*
X108051Y-69734D01*
X108071Y-69712D01*
X108097Y-69685D01*
X108125Y-69655D01*
X108156Y-69624D01*
X108187Y-69593D01*
X108216Y-69564D01*
X108242Y-69539D01*
X108263Y-69519D01*
X108278Y-69507D01*
X108284Y-69503D01*
X108292Y-69507D01*
X108310Y-69518D01*
X108336Y-69534D01*
X108368Y-69556D01*
X108406Y-69581D01*
X108436Y-69602D01*
X108477Y-69629D01*
X108513Y-69654D01*
X108544Y-69674D01*
X108568Y-69689D01*
X108584Y-69698D01*
X108589Y-69701D01*
X108599Y-69698D01*
X108620Y-69691D01*
X108648Y-69680D01*
X108681Y-69666D01*
X108717Y-69652D01*
X108752Y-69636D01*
X108784Y-69622D01*
X108811Y-69609D01*
X108830Y-69600D01*
X108839Y-69594D01*
X108839Y-69594D01*
X108842Y-69584D01*
X108847Y-69563D01*
X108853Y-69532D01*
X108861Y-69493D01*
X108869Y-69449D01*
X108874Y-69425D01*
X108882Y-69379D01*
X108891Y-69336D01*
X108898Y-69300D01*
X108904Y-69272D01*
X108908Y-69254D01*
X108909Y-69250D01*
X108912Y-69245D01*
X108915Y-69242D01*
X108922Y-69239D01*
X108933Y-69237D01*
X108950Y-69236D01*
X108975Y-69235D01*
X109010Y-69235D01*
X109056Y-69234D01*
X109092Y-69234D01*
X109143Y-69235D01*
X109188Y-69235D01*
X109225Y-69237D01*
X109253Y-69238D01*
X109269Y-69240D01*
X109273Y-69241D01*
X109275Y-69249D01*
X109280Y-69270D01*
X109286Y-69300D01*
X109294Y-69339D01*
X109302Y-69383D01*
X109309Y-69420D01*
X109318Y-69467D01*
X109327Y-69511D01*
X109335Y-69548D01*
X109342Y-69576D01*
X109347Y-69594D01*
X109350Y-69599D01*
X109360Y-69606D01*
X109380Y-69615D01*
X109408Y-69627D01*
X109441Y-69641D01*
X109477Y-69655D01*
X109512Y-69669D01*
X109545Y-69682D01*
X109573Y-69691D01*
X109593Y-69697D01*
X109602Y-69699D01*
X109610Y-69694D01*
X109629Y-69682D01*
X109655Y-69665D01*
X109688Y-69643D01*
X109726Y-69618D01*
X109752Y-69599D01*
X109792Y-69572D01*
X109827Y-69548D01*
X109858Y-69528D01*
X109882Y-69513D01*
X109896Y-69505D01*
X109900Y-69503D01*
X109908Y-69508D01*
X109924Y-69521D01*
X109946Y-69542D01*
X109974Y-69569D01*
X110007Y-69601D01*
X110032Y-69626D01*
X110073Y-69667D01*
X110105Y-69700D01*
X110128Y-69725D01*
X110142Y-69743D01*
X110150Y-69755D01*
X110151Y-69762D01*
X110146Y-69771D01*
X110135Y-69790D01*
X110117Y-69818D01*
X110095Y-69851D01*
X110070Y-69888D01*
X110055Y-69910D01*
X110029Y-69949D01*
X110005Y-69985D01*
X109985Y-70016D01*
X109971Y-70039D01*
X109963Y-70054D01*
X109962Y-70058D01*
X109965Y-70068D01*
X109972Y-70088D01*
X109983Y-70116D01*
X109997Y-70149D01*
X110011Y-70185D01*
X110026Y-70221D01*
X110041Y-70253D01*
X110053Y-70281D01*
X110063Y-70301D01*
X110068Y-70311D01*
X110068Y-70311D01*
X110077Y-70314D01*
X110097Y-70319D01*
X110127Y-70326D01*
X110165Y-70334D01*
X110209Y-70342D01*
X110238Y-70348D01*
X110285Y-70357D01*
X110327Y-70365D01*
X110363Y-70372D01*
X110391Y-70377D01*
X110408Y-70381D01*
X110412Y-70382D01*
X110415Y-70390D01*
X110418Y-70410D01*
X110419Y-70439D01*
X110421Y-70475D01*
X110422Y-70517D01*
X110422Y-70560D01*
X110422Y-70604D01*
X110422Y-70646D01*
X110420Y-70683D01*
X110418Y-70714D01*
X110416Y-70735D01*
X110413Y-70745D01*
X110413Y-70745D01*
X110403Y-70748D01*
X110382Y-70753D01*
X110352Y-70760D01*
X110313Y-70768D01*
X110269Y-70776D01*
X110245Y-70781D01*
X110200Y-70789D01*
X110158Y-70798D01*
X110123Y-70806D01*
X110097Y-70812D01*
X110081Y-70817D01*
X110078Y-70819D01*
X110073Y-70828D01*
X110064Y-70848D01*
X110052Y-70876D01*
X110037Y-70909D01*
X110023Y-70946D01*
X110008Y-70983D01*
X109994Y-71018D01*
X109982Y-71048D01*
X109974Y-71072D01*
X109970Y-71086D01*
X109969Y-71088D01*
X109973Y-71096D01*
X109984Y-71114D01*
X110001Y-71140D01*
X110022Y-71172D01*
X110047Y-71209D01*
X110061Y-71229D01*
X110088Y-71268D01*
X110111Y-71303D01*
X110130Y-71334D01*
X110144Y-71357D01*
X110152Y-71371D01*
X110153Y-71375D01*
X110148Y-71382D01*
X110135Y-71398D01*
X110115Y-71420D01*
X110090Y-71447D01*
X110061Y-71477D01*
X110031Y-71508D01*
X110000Y-71539D01*
X109971Y-71568D01*
X109945Y-71593D01*
X109924Y-71613D01*
X109910Y-71626D01*
X109903Y-71630D01*
X109896Y-71626D01*
X109879Y-71616D01*
X109854Y-71599D01*
X109822Y-71578D01*
X109786Y-71553D01*
X109764Y-71538D01*
X109725Y-71512D01*
X109690Y-71489D01*
X109660Y-71469D01*
X109637Y-71455D01*
X109623Y-71447D01*
X109620Y-71446D01*
X109610Y-71449D01*
X109591Y-71458D01*
X109566Y-71470D01*
X109549Y-71479D01*
X109519Y-71494D01*
X109499Y-71503D01*
X109484Y-71503D01*
X109473Y-71494D01*
X109463Y-71475D01*
X109450Y-71443D01*
X109448Y-71439D01*
X109440Y-71420D01*
X109428Y-71389D01*
X109412Y-71350D01*
X109393Y-71303D01*
X109371Y-71252D01*
X109349Y-71197D01*
X109334Y-71162D01*
X109312Y-71109D01*
X109292Y-71059D01*
X109275Y-71016D01*
X109260Y-70979D01*
X109249Y-70951D01*
X109243Y-70933D01*
X109241Y-70928D01*
X109247Y-70919D01*
X109261Y-70905D01*
X109282Y-70888D01*
X109291Y-70881D01*
X109350Y-70832D01*
X109395Y-70780D01*
X109428Y-70725D01*
X109449Y-70665D01*
X109459Y-70598D01*
X109460Y-70562D01*
X109454Y-70490D01*
X109435Y-70424D01*
X109402Y-70363D01*
X109357Y-70308D01*
X109340Y-70292D01*
X109283Y-70250D01*
X109221Y-70220D01*
X109156Y-70202D01*
X109090Y-70197D01*
X109023Y-70203D01*
X108959Y-70222D01*
X108898Y-70252D01*
X108843Y-70295D01*
X108824Y-70313D01*
X108779Y-70370D01*
X108748Y-70430D01*
X108729Y-70495D01*
X108723Y-70566D01*
X108723Y-70567D01*
X108730Y-70638D01*
X108749Y-70705D01*
X108781Y-70766D01*
X108827Y-70822D01*
X108885Y-70874D01*
X108901Y-70886D01*
X108922Y-70902D01*
X108937Y-70916D01*
X108944Y-70926D01*
X108945Y-70927D01*
X108942Y-70937D01*
X108935Y-70957D01*
X108924Y-70984D01*
X108911Y-71016D01*
X108910Y-71020D01*
X108898Y-71049D01*
X108881Y-71088D01*
X108862Y-71135D01*
X108840Y-71187D01*
X108817Y-71242D01*
X108795Y-71297D01*
X108793Y-71301D01*
X108772Y-71351D01*
X108753Y-71396D01*
X108736Y-71436D01*
X108722Y-71468D01*
X108712Y-71491D01*
X108706Y-71504D01*
X108705Y-71505D01*
X108696Y-71505D01*
X108678Y-71498D01*
X108652Y-71487D01*
X108636Y-71479D01*
X108608Y-71465D01*
X108585Y-71454D01*
X108569Y-71447D01*
X108564Y-71446D01*
X108556Y-71450D01*
X108538Y-71461D01*
X108512Y-71477D01*
X108480Y-71498D01*
X108444Y-71523D01*
X108433Y-71530D01*
X108396Y-71556D01*
X108361Y-71579D01*
X108332Y-71599D01*
X108310Y-71613D01*
X108297Y-71622D01*
X108295Y-71623D01*
X108289Y-71625D01*
X108283Y-71624D01*
X108275Y-71620D01*
X108263Y-71612D01*
X108247Y-71597D01*
X108224Y-71576D01*
X108195Y-71547D01*
X108156Y-71509D01*
X108156Y-71509D01*
X108120Y-71472D01*
X108088Y-71439D01*
X108063Y-71412D01*
X108044Y-71390D01*
X108035Y-71377D01*
X108033Y-71374D01*
X108037Y-71364D01*
X108048Y-71345D01*
X108064Y-71318D01*
X108086Y-71285D01*
X108111Y-71248D01*
X108125Y-71227D01*
X108151Y-71189D01*
X108174Y-71154D01*
X108194Y-71125D01*
X108208Y-71103D01*
X108216Y-71090D01*
X108217Y-71088D01*
X108214Y-71079D01*
X108207Y-71059D01*
X108196Y-71032D01*
X108184Y-70999D01*
X108169Y-70963D01*
X108154Y-70927D01*
X108140Y-70892D01*
X108127Y-70861D01*
X108117Y-70838D01*
X108110Y-70824D01*
X108109Y-70822D01*
X108103Y-70817D01*
X108090Y-70813D01*
X108070Y-70807D01*
X108041Y-70800D01*
X108003Y-70792D01*
X107953Y-70783D01*
X107891Y-70771D01*
X107853Y-70764D01*
X107823Y-70759D01*
X107798Y-70754D01*
X107781Y-70750D01*
X107777Y-70749D01*
X107773Y-70747D01*
X107770Y-70743D01*
X107768Y-70733D01*
X107767Y-70718D01*
X107766Y-70695D01*
X107765Y-70663D01*
X107765Y-70620D01*
X107765Y-71828D01*
X109100Y-71828D01*
X110478Y-71828D01*
X110478Y-70450D01*
X110478Y-69072D01*
X109100Y-69072D01*
X107722Y-69072D01*
X107722Y-70450D01*
X107722Y-71828D01*
X107722Y-71828D01*
X107722Y-71828D01*
G37*
M02*
