M48
METRIC,TZ
T1C0.600
T2C0.700
T3C0.800
T4C0.813
T5C3.048
%
G90
G05
T1
X253492Y-199390
X256032Y-199390
X297942Y-199390
X300482Y-199390
T2
X274574Y-205486
X277114Y-205486
X279654Y-205486
T3
X264668Y-178816
X265430Y-206248
X267208Y-176276
X267208Y-206248
X268986Y-206248
X269748Y-178816
X275844Y-201422
X278384Y-201422
X284226Y-178816
X284988Y-206248
X286766Y-176276
X286766Y-206248
X288544Y-206248
X289306Y-178816
T4
X254508Y-176530
X255778Y-204724
X257048Y-176530
X258318Y-204724
X267208Y-186563
X267208Y-195453
X286766Y-186563
X286766Y-195453
X296418Y-204978
X296926Y-176530
X298958Y-204978
X299466Y-176530
T5
X259588Y-191008
X294640Y-191008
T0
M30
